Foldit-colorsvg-ExtraBold.ufo
<glyph name="exclam.color0" format="2">
  <advance width="600"/>
  <unicode hex="0021"/>
  <outline>
    <contour>
      <point x="269" y="0" type="line"/>
      <point x="37" y="0" type="line"/>
      <point x="37" y="204" type="line"/>
      <point x="269" y="204" type="line"/>
    </contour>
  </outline>
</glyph>
<glyph name="quotedbl.color0" format="2">
  <advance width="600"/>
  <unicode hex="0022"/>
  <outline>
    <contour>
      <point x="277" y="590" type="line"/>
      <point x="35" y="590" type="line"/>
      <point x="35" y="794" type="line"/>
      <point x="170" y="794" type="line"/>
    </contour>
  </outline>
</glyph>
<glyph name="parenright.color0" format="2">
  <advance width="600"/>
  <unicode hex="0029"/>
  <outline>
    <contour>
      <point x="530" y="107" type="line"/>
      <point x="277" y="-100" type="line"/>
      <point x="276" y="-100" type="line"/>
      <point x="276" y="486" type="line"/>
      <point x="530" y="486" type="line"/>
    </contour>
  </outline>
</glyph>
<glyph name="parenright.color1" format="2">
  <advance width="600"/>
  <unicode hex="0029"/>
  <outline>
    <contour>
      <point x="15" y="144" type="line"/>
      <point x="276" y="144" type="line"/>
      <point x="276" y="-100" type="line"/>
      <point x="15" y="-100" type="line"/>
      <point x="15" y="-99" type="line"/>
    </contour>
  </outline>
</glyph>
<glyph name="plus.color1" format="2">
  <advance width="600"/>
  <unicode hex="002B"/>
  <outline>
    <contour>
      <point x="489" y="477" type="line"/>
      <point x="749" y="477" type="line"/>
      <point x="749" y="273" type="line"/>
      <point x="286" y="273" type="line"/>
    </contour>
  </outline>
</glyph>
<glyph name="at.color8" format="2">
  <advance width="600"/>
  <unicode hex="0040"/>
  <outline>
    <contour>
      <point x="53" y="-77" type="line"/>
      <point x="53" y="606" type="line"/>
      <point x="77" y="606" type="line"/>
      <point x="77" y="-100" type="line"/>
      <point x="76" y="-100" type="line"/>
    </contour>
  </outline>
</glyph>
<glyph name="B.color4" format="2">
  <advance width="600"/>
  <unicode hex="0042"/>
  <outline>
    <contour>
      <point x="858" y="376" type="line"/>
      <point x="739" y="467" type="line"/>
      <point x="584" y="467" type="line"/>
      <point x="584" y="730" type="line"/>
      <point x="585" y="730" type="line"/>
      <point x="858" y="533" type="line"/>
    </contour>
  </outline>
</glyph>
<glyph name="E.color0" format="2">
  <advance width="600"/>
  <unicode hex="0045"/>
  <outline>
    <contour>
      <point x="35" y="730" type="line"/>
      <point x="289" y="730" type="line"/>
      <point x="289" y="244" type="line"/>
      <point x="35" y="244" type="line"/>
    </contour>
  </outline>
</glyph>
<glyph name="E.color3" format="2">
  <advance width="600"/>
  <unicode hex="0045"/>
  <outline>
    <contour>
      <point x="801" y="0" type="line"/>
      <point x="237" y="0" type="line"/>
      <point x="35" y="243" type="line"/>
      <point x="35" y="244" type="line"/>
      <point x="801" y="244" type="line"/>
    </contour>
  </outline>
</glyph>
<glyph name="H" format="2">
  <advance width="927"/>
  <unicode hex="0048"/>
  <anchor x="496" y="730" name="top"/>
  <outline>
    <contour>
      <point x="35" y="730" type="line"/>
      <point x="288" y="730" type="line"/>
      <point x="289" y="730" type="line"/>
      <point x="289" y="0" type="line"/>
      <point x="35" y="0" type="line"/>
    </contour>
    <contour>
      <point x="892" y="-4" type="line"/>
      <point x="639" y="-4" type="line"/>
      <point x="638" y="-4" type="line"/>
      <point x="638" y="730" type="line"/>
      <point x="892" y="730" type="line"/>
    </contour>
    <contour>
      <point x="289" y="243" type="line"/>
      <point x="289" y="487" type="line"/>
      <point x="638" y="487" type="line"/>
      <point x="638" y="486" type="line"/>
      <point x="638" y="243" type="line"/>
    </contour>
  </outline>
</glyph>
<glyph name="N" format="2">
  <advance width="897"/>
  <unicode hex="004E"/>
  <anchor x="445" y="0" name="bottom"/>
  <anchor x="456" y="730" name="top"/>
  <outline>
    <contour>
      <point x="35" y="0" type="line"/>
      <point x="35" y="571" type="line"/>
      <point x="289" y="345" type="line"/>
      <point x="289" y="0" type="line"/>
    </contour>
    <contour>
      <point x="862" y="730" type="line"/>
      <point x="862" y="172" type="line"/>
      <point x="608" y="397" type="line"/>
      <point x="608" y="730" type="line"/>
    </contour>
    <contour>
      <point x="35" y="571" type="line"/>
      <point x="35" y="572" type="line"/>
      <point x="227" y="736" type="line"/>
      <point x="228" y="736" type="line"/>
      <point x="862" y="172" type="line"/>
      <point x="862" y="171" type="line"/>
      <point x="683" y="-6" type="line"/>
      <point x="682" y="-6" type="line"/>
    </contour>
  </outline>
</glyph>
<glyph name="T.color0" format="2">
  <advance width="600"/>
  <unicode hex="0054"/>
  <outline>
    <contour>
      <point x="306" y="486" type="line"/>
      <point x="508" y="730" type="line"/>
      <point x="560" y="730" type="line"/>
      <point x="560" y="0" type="line"/>
      <point x="358" y="0" type="line"/>
      <point x="305" y="0" type="line"/>
    </contour>
  </outline>
</glyph>
<glyph name="V.color0" format="2">
  <advance width="600"/>
  <unicode hex="0056"/>
  <outline>
    <contour>
      <point x="0" y="730" type="line"/>
      <point x="284" y="730" type="line"/>
      <point x="527" y="192" type="line"/>
      <point x="329" y="0" type="line"/>
      <point x="328" y="0" type="line"/>
    </contour>
  </outline>
</glyph>
<glyph name="Y.color2" format="2">
  <advance width="600"/>
  <unicode hex="0059"/>
  <outline>
    <contour>
      <point x="552" y="0" type="line"/>
      <point x="288" y="0" type="line"/>
      <point x="288" y="285" type="line"/>
      <point x="552" y="285" type="line"/>
    </contour>
  </outline>
</glyph>
<glyph name="Z.color0" format="2">
  <advance width="600"/>
  <unicode hex="005A"/>
  <outline>
    <contour>
      <point x="35" y="730" type="line"/>
      <point x="644" y="730" type="line"/>
      <point x="618" y="486" type="line"/>
      <point x="35" y="486" type="line"/>
      <point x="35" y="487" type="line"/>
    </contour>
  </outline>
</glyph>
<glyph name="Z" format="2">
  <advance width="825"/>
  <unicode hex="005A"/>
  <anchor x="386" y="730" name="top"/>
  <outline>
    <contour>
      <point x="35" y="730" type="line"/>
      <point x="644" y="730" type="line"/>
      <point x="618" y="486" type="line"/>
      <point x="35" y="486" type="line"/>
      <point x="35" y="487" type="line"/>
    </contour>
    <contour>
      <point x="244" y="119" type="line"/>
      <point x="41" y="244" type="line"/>
      <point x="41" y="245" type="line"/>
      <point x="644" y="730" type="line"/>
      <point x="784" y="535" type="line"/>
    </contour>
    <contour>
      <point x="790" y="0" type="line"/>
      <point x="41" y="0" type="line"/>
      <point x="41" y="244" type="line"/>
      <point x="790" y="244" type="line"/>
      <point x="790" y="243" type="line"/>
    </contour>
  </outline>
</glyph>
<glyph name="asciicircum.color1" format="2">
  <advance width="600"/>
  <unicode hex="005E"/>
  <outline>
    <contour>
      <point x="35" y="308" type="line"/>
      <point x="35" y="309" type="line"/>
      <point x="314" y="730" type="line"/>
      <point x="546" y="730" type="line"/>
      <point x="291" y="308" type="line"/>
    </contour>
  </outline>
</glyph>
<glyph name="underscore" format="2">
  <advance width="1190"/>
  <unicode hex="005F"/>
  <outline>
    <contour>
      <point x="1155" y="-184" type="line"/>
      <point x="35" y="-184" type="line"/>
      <point x="35" y="0" type="line"/>
      <point x="1155" y="0" type="line"/>
      <point x="1155" y="-183" type="line"/>
    </contour>
  </outline>
</glyph>
<glyph name="e" format="2">
  <advance width="837"/>
  <unicode hex="0065"/>
  <anchor x="431" y="0" name="bottom"/>
  <anchor x="442" y="530" name="top"/>
  <outline>
    <contour>
      <point x="45" y="423" type="line"/>
      <point x="258" y="530" type="line"/>
      <point x="259" y="530" type="line"/>
      <point x="259" y="200" type="line"/>
      <point x="45" y="200" type="line"/>
    </contour>
    <contour>
      <point x="705" y="530" type="line"/>
      <point x="812" y="352" type="line"/>
      <point x="812" y="351" type="line"/>
      <point x="259" y="351" type="line"/>
      <point x="259" y="530" type="line"/>
    </contour>
    <contour>
      <point x="152" y="0" type="line"/>
      <point x="45" y="199" type="line"/>
      <point x="45" y="200" type="line"/>
      <point x="812" y="200" type="line"/>
      <point x="812" y="199" type="line"/>
      <point x="705" y="0" type="line"/>
    </contour>
    <contour>
      <point x="598" y="331" type="line"/>
      <point x="598" y="221" type="line"/>
      <point x="259" y="220" type="line"/>
      <point x="259" y="331" type="line"/>
    </contour>
    <contour>
      <point x="812" y="328" type="line"/>
      <point x="599" y="221" type="line"/>
      <point x="598" y="221" type="line"/>
      <point x="598" y="351" type="line"/>
      <point x="812" y="351" type="line"/>
    </contour>
  </outline>
</glyph>
<glyph name="f.color2" format="2">
  <advance width="600"/>
  <unicode hex="0066"/>
  <outline>
    <contour>
      <point x="553" y="703" type="line"/>
      <point x="576" y="500" type="line"/>
      <point x="576" y="499" type="line"/>
      <point x="249" y="499" type="line"/>
      <point x="249" y="703" type="line"/>
    </contour>
  </outline>
</glyph>
<glyph name="k.color0" format="2">
  <advance width="600"/>
  <unicode hex="006B"/>
  <outline>
    <contour>
      <point x="35" y="794" type="line"/>
      <point x="248" y="794" type="line"/>
      <point x="249" y="400" type="line"/>
      <point x="249" y="0" type="line"/>
      <point x="35" y="0" type="line"/>
    </contour>
  </outline>
</glyph>
<glyph name="m.color2" format="2">
  <advance width="600"/>
  <unicode hex="006D"/>
  <outline>
    <contour>
      <point x="1048" y="530" type="line"/>
      <point x="1155" y="327" type="line"/>
      <point x="1155" y="326" type="line"/>
      <point x="692" y="326" type="line"/>
      <point x="692" y="530" type="line"/>
    </contour>
    <contour>
      <point x="625" y="530" type="line"/>
      <point x="692" y="327" type="line"/>
      <point x="692" y="326" type="line"/>
      <point x="249" y="326" type="line"/>
      <point x="249" y="530" type="line"/>
    </contour>
  </outline>
</glyph>
<glyph name="n.color1" format="2">
  <advance width="600"/>
  <unicode hex="006E"/>
  <outline>
    <contour>
      <point x="665" y="530" type="line"/>
      <point x="772" y="327" type="line"/>
      <point x="772" y="326" type="line"/>
      <point x="249" y="326" type="line"/>
      <point x="249" y="530" type="line"/>
    </contour>
  </outline>
</glyph>
<glyph name="n.color2" format="2">
  <advance width="600"/>
  <unicode hex="006E"/>
  <outline>
    <contour>
      <point x="772" y="41" type="line"/>
      <point x="559" y="-6" type="line"/>
      <point x="558" y="-6" type="line"/>
      <point x="558" y="326" type="line"/>
      <point x="772" y="326" type="line"/>
    </contour>
  </outline>
</glyph>
<glyph name="n" format="2">
  <advance width="807"/>
  <unicode hex="006E"/>
  <anchor x="395" y="0" name="bottom"/>
  <anchor x="446" y="530" name="top"/>
  <outline>
    <contour>
      <point x="35" y="423" type="line"/>
      <point x="248" y="530" type="line"/>
      <point x="249" y="530" type="line"/>
      <point x="249" y="0" type="line"/>
      <point x="35" y="0" type="line"/>
    </contour>
    <contour>
      <point x="665" y="530" type="line"/>
      <point x="772" y="327" type="line"/>
      <point x="772" y="326" type="line"/>
      <point x="249" y="326" type="line"/>
      <point x="249" y="530" type="line"/>
    </contour>
    <contour>
      <point x="772" y="41" type="line"/>
      <point x="559" y="-6" type="line"/>
      <point x="558" y="-6" type="line"/>
      <point x="558" y="326" type="line"/>
      <point x="772" y="326" type="line"/>
    </contour>
  </outline>
</glyph>
<glyph name="s" format="2">
  <advance width="674"/>
  <unicode hex="0073"/>
  <anchor x="342" y="0" name="bottom"/>
  <anchor x="344" y="530" name="top"/>
  <outline>
    <contour>
      <point x="535" y="530" type="line"/>
      <point x="642" y="352" type="line"/>
      <point x="642" y="351" type="line"/>
      <point x="148" y="351" type="line"/>
      <point x="122" y="530" type="line"/>
    </contour>
    <contour>
      <point x="384" y="149" type="line"/>
      <point x="32" y="365" type="line"/>
      <point x="122" y="530" type="line"/>
      <point x="652" y="180" type="line"/>
      <point x="652" y="179" type="line"/>
    </contour>
    <contour>
      <point x="129" y="0" type="line"/>
      <point x="22" y="178" type="line"/>
      <point x="22" y="179" type="line"/>
      <point x="652" y="179" type="line"/>
      <point x="545" y="0" type="line"/>
    </contour>
  </outline>
</glyph>
<glyph name="v.color1" format="2">
  <advance width="600"/>
  <unicode hex="0076"/>
  <outline>
    <contour>
      <point x="35" y="531" type="line"/>
      <point x="228" y="531" type="line"/>
      <point x="229" y="531" type="line"/>
      <point x="229" y="205" type="line"/>
      <point x="35" y="205" type="line"/>
    </contour>
  </outline>
</glyph>
<glyph name="v" format="2">
  <advance width="777"/>
  <unicode hex="0076"/>
  <outline>
    <contour>
      <point x="742" y="205" type="line"/>
      <point x="529" y="1" type="line"/>
      <point x="528" y="1" type="line"/>
      <point x="528" y="531" type="line"/>
      <point x="742" y="531" type="line"/>
    </contour>
    <contour>
      <point x="35" y="531" type="line"/>
      <point x="228" y="531" type="line"/>
      <point x="229" y="531" type="line"/>
      <point x="229" y="205" type="line"/>
      <point x="35" y="205" type="line"/>
    </contour>
    <contour>
      <point x="102" y="1" type="line"/>
      <point x="35" y="204" type="line"/>
      <point x="35" y="205" type="line"/>
      <point x="528" y="205" type="line"/>
      <point x="528" y="1" type="line"/>
    </contour>
  </outline>
</glyph>
<glyph name="x.color1" format="2">
  <advance width="600"/>
  <unicode hex="0078"/>
  <outline>
    <contour>
      <point x="859" y="530" type="line"/>
      <point x="581" y="265" type="line"/>
      <point x="279" y="265" type="line"/>
      <point x="567" y="530" type="line"/>
    </contour>
  </outline>
</glyph>
<glyph name="braceright.color3" format="2">
  <advance width="600"/>
  <unicode hex="007D"/>
  <outline>
    <contour>
      <point x="632" y="192" type="line"/>
      <point x="480" y="192" type="line"/>
      <point x="480" y="436" type="line"/>
      <point x="632" y="436" type="line"/>
    </contour>
  </outline>
</glyph>
<glyph name="braceright.color4" format="2">
  <advance width="600"/>
  <unicode hex="007D"/>
  <outline>
    <contour>
      <point x="226" y="229" type="line"/>
      <point x="479" y="436" type="line"/>
      <point x="480" y="436" type="line"/>
      <point x="480" y="-100" type="line"/>
      <point x="226" y="-100" type="line"/>
    </contour>
  </outline>
</glyph>
<glyph name="asciitilde.color0" format="2">
  <advance width="600"/>
  <unicode hex="007E"/>
  <outline>
    <contour>
      <point x="783" y="559" type="line"/>
      <point x="783" y="260" type="line"/>
      <point x="569" y="260" type="line"/>
      <point x="569" y="559" type="line"/>
    </contour>
  </outline>
</glyph>
<glyph name="exclamdown.color1" format="2">
  <advance width="600"/>
  <unicode hex="00A1"/>
  <outline>
    <contour>
      <point x="269" y="71" type="line"/>
      <point x="56" y="-36" type="line"/>
      <point x="55" y="-36" type="line"/>
      <point x="55" y="426" type="line"/>
      <point x="269" y="426" type="line"/>
    </contour>
  </outline>
</glyph>
<glyph name="exclamdown" format="2">
  <advance width="304"/>
  <unicode hex="00A1"/>
  <outline>
    <contour>
      <point x="35" y="700" type="line"/>
      <point x="267" y="700" type="line"/>
      <point x="267" y="496" type="line"/>
      <point x="35" y="496" type="line"/>
    </contour>
    <contour>
      <point x="269" y="71" type="line"/>
      <point x="56" y="-36" type="line"/>
      <point x="55" y="-36" type="line"/>
      <point x="55" y="426" type="line"/>
      <point x="269" y="426" type="line"/>
    </contour>
  </outline>
</glyph>
<glyph name="cent.color0" format="2">
  <advance width="600"/>
  <unicode hex="00A2"/>
  <outline>
    <contour>
      <point x="548" y="-33" type="line"/>
      <point x="317" y="-56" type="line"/>
      <point x="315" y="-56" type="line"/>
      <point x="315" y="34" type="line"/>
      <point x="317" y="34" type="line"/>
      <point x="548" y="34" type="line"/>
    </contour>
  </outline>
</glyph>
<glyph name="currency.color3" format="2">
  <advance width="600"/>
  <unicode hex="00A4"/>
  <outline>
    <contour>
      <point x="369" y="580" type="line"/>
      <point x="155" y="453" type="line"/>
      <point x="65" y="579" type="line"/>
      <point x="279" y="706" type="line"/>
    </contour>
  </outline>
</glyph>
<glyph name="currency.color5" format="2">
  <advance width="600"/>
  <unicode hex="00A4"/>
  <outline>
    <contour>
      <point x="815" y="580" type="line"/>
      <point x="942" y="376" type="line"/>
      <point x="369" y="376" type="line"/>
      <point x="369" y="580" type="line"/>
    </contour>
  </outline>
</glyph>
<glyph name="yen.color4" format="2">
  <advance width="600"/>
  <unicode hex="00A5"/>
  <outline>
    <contour>
      <point x="552" y="0" type="line"/>
      <point x="288" y="0" type="line"/>
      <point x="288" y="285" type="line"/>
      <point x="552" y="285" type="line"/>
    </contour>
  </outline>
</glyph>
<glyph name="section.color1" format="2">
  <advance width="600"/>
  <unicode hex="00A7"/>
  <outline>
    <contour>
      <point x="600" y="730" type="line"/>
      <point x="802" y="487" type="line"/>
      <point x="802" y="486" type="line"/>
      <point x="224" y="486" type="line"/>
      <point x="198" y="730" type="line"/>
    </contour>
  </outline>
</glyph>
<glyph name="section.color5" format="2">
  <advance width="600"/>
  <unicode hex="00A7"/>
  <outline>
    <contour>
      <point x="25" y="248" type="line"/>
      <point x="25" y="249" type="line"/>
      <point x="165" y="453" type="line"/>
      <point x="775" y="139" type="line"/>
      <point x="635" y="-56" type="line"/>
    </contour>
  </outline>
</glyph>
<glyph name="copyright.color5" format="2">
  <advance width="600"/>
  <unicode hex="00A9"/>
  <outline>
    <contour>
      <point x="741" y="596" type="line"/>
      <point x="848" y="418" type="line"/>
      <point x="848" y="417" type="line"/>
      <point x="355" y="417" type="line"/>
      <point x="355" y="596" type="line"/>
    </contour>
  </outline>
</glyph>
<glyph name="guillemetleft.color1" format="2">
  <advance width="600"/>
  <unicode hex="00AB"/>
  <outline>
    <contour>
      <point x="566" y="0" type="line"/>
      <point x="324" y="260" type="line"/>
      <point x="324" y="261" type="line"/>
      <point x="562" y="261" type="line"/>
      <point x="803" y="4" type="line"/>
      <point x="803" y="0" type="line"/>
    </contour>
  </outline>
</glyph>
<glyph name="guillemetleft.color2" format="2">
  <advance width="600"/>
  <unicode hex="00AB"/>
  <outline>
    <contour>
      <point x="277" y="526" type="line"/>
      <point x="514" y="526" type="line"/>
      <point x="514" y="525" type="line"/>
      <point x="273" y="257" type="line"/>
      <point x="35" y="257" type="line"/>
      <point x="35" y="258" type="line"/>
    </contour>
  </outline>
</glyph>
<glyph name="guillemetleft" format="2">
  <advance width="828"/>
  <unicode hex="00AB"/>
  <outline>
    <contour>
      <point x="566" y="530" type="line"/>
      <point x="803" y="530" type="line"/>
      <point x="803" y="529" type="line"/>
      <point x="562" y="261" type="line"/>
      <point x="324" y="261" type="line"/>
      <point x="324" y="262" type="line"/>
    </contour>
    <contour>
      <point x="566" y="0" type="line"/>
      <point x="324" y="260" type="line"/>
      <point x="324" y="261" type="line"/>
      <point x="562" y="261" type="line"/>
      <point x="803" y="4" type="line"/>
      <point x="803" y="0" type="line"/>
    </contour>
    <contour>
      <point x="277" y="526" type="line"/>
      <point x="514" y="526" type="line"/>
      <point x="514" y="525" type="line"/>
      <point x="273" y="257" type="line"/>
      <point x="35" y="257" type="line"/>
      <point x="35" y="258" type="line"/>
    </contour>
    <contour>
      <point x="277" y="-4" type="line"/>
      <point x="35" y="256" type="line"/>
      <point x="35" y="257" type="line"/>
      <point x="273" y="257" type="line"/>
      <point x="514" y="0" type="line"/>
      <point x="514" y="-4" type="line"/>
    </contour>
  </outline>
</glyph>
<glyph name="registered" format="2">
  <advance width="675"/>
  <unicode hex="00AE"/>
  <outline>
    <contour>
      <point x="583" y="485" type="line"/>
      <point x="362" y="485" type="line"/>
      <point x="260" y="604" type="line"/>
      <point x="471" y="604" type="line"/>
      <point x="583" y="486" type="line"/>
    </contour>
    <contour>
      <point x="107" y="746" type="line"/>
      <point x="260" y="746" type="line"/>
      <point x="261" y="746" type="line"/>
      <point x="261" y="485" type="line"/>
      <point x="107" y="485" type="line"/>
    </contour>
    <contour>
      <point x="456" y="746" type="line"/>
      <point x="558" y="653" type="line"/>
      <point x="558" y="652" type="line"/>
      <point x="261" y="652" type="line"/>
      <point x="261" y="746" type="line"/>
    </contour>
    <contour>
      <point x="558" y="575" type="line"/>
      <point x="405" y="528" type="line"/>
      <point x="404" y="528" type="line"/>
      <point x="404" y="652" type="line"/>
      <point x="558" y="652" type="line"/>
    </contour>
    <contour>
      <point x="261" y="528" type="line"/>
      <point x="261" y="622" type="line"/>
      <point x="404" y="622" type="line"/>
      <point x="404" y="621" type="line"/>
      <point x="404" y="528" type="line"/>
    </contour>
    <contour>
      <point x="640" y="777" type="line"/>
      <point x="640" y="455" type="line"/>
      <point x="616" y="455" type="line"/>
      <point x="616" y="800" type="line"/>
      <point x="617" y="800" type="line"/>
    </contour>
    <contour>
      <point x="58" y="800" type="line"/>
      <point x="616" y="800" type="line"/>
      <point x="616" y="776" type="line"/>
      <point x="35" y="776" type="line"/>
      <point x="35" y="777" type="line"/>
    </contour>
    <contour>
      <point x="35" y="454" type="line"/>
      <point x="35" y="776" type="line"/>
      <point x="59" y="776" type="line"/>
      <point x="59" y="431" type="line"/>
      <point x="58" y="431" type="line"/>
    </contour>
    <contour>
      <point x="617" y="431" type="line"/>
      <point x="59" y="431" type="line"/>
      <point x="59" y="455" type="line"/>
      <point x="640" y="455" type="line"/>
      <point x="640" y="454" type="line"/>
    </contour>
  </outline>
</glyph>
<glyph name="plusminus.color1" format="2">
  <advance width="600"/>
  <unicode hex="00B1"/>
  <outline>
    <contour>
      <point x="25" y="622" type="line"/>
      <point x="264" y="622" type="line"/>
      <point x="265" y="418" type="line"/>
      <point x="25" y="418" type="line"/>
    </contour>
  </outline>
</glyph>
<glyph name="paragraph" format="2">
  <advance width="1043"/>
  <unicode hex="00B6"/>
  <outline>
    <contour>
      <point x="754" y="486" type="line"/>
      <point x="1008" y="486" type="line"/>
      <point x="1008" y="0" type="line"/>
      <point x="754" y="0" type="line"/>
    </contour>
    <contour>
      <point x="708" y="486" type="line"/>
      <point x="708" y="0" type="line"/>
      <point x="454" y="0" type="line"/>
      <point x="454" y="486" type="line"/>
    </contour>
    <contour>
      <point x="207" y="173" type="line"/>
      <point x="5" y="416" type="line"/>
      <point x="5" y="417" type="line"/>
      <point x="454" y="417" type="line"/>
      <point x="454" y="173" type="line"/>
    </contour>
    <contour>
      <point x="5" y="533" type="line"/>
      <point x="258" y="730" type="line"/>
      <point x="259" y="730" type="line"/>
      <point x="259" y="417" type="line"/>
      <point x="5" y="417" type="line"/>
    </contour>
    <contour>
      <point x="1008" y="730" type="line"/>
      <point x="1008" y="486" type="line"/>
      <point x="259" y="486" type="line"/>
      <point x="259" y="730" type="line"/>
    </contour>
  </outline>
</glyph>
<glyph name="onesuperior.color0" format="2">
  <advance width="600"/>
  <unicode hex="00B9"/>
  <outline>
    <contour>
      <point x="179" y="660" type="line"/>
      <point x="281" y="794" type="line"/>
      <point x="333" y="794" type="line"/>
      <point x="333" y="604" type="line"/>
      <point x="231" y="470" type="line"/>
      <point x="178" y="470" type="line"/>
    </contour>
  </outline>
</glyph>
<glyph name="ordmasculine.color3" format="2">
  <advance width="600"/>
  <unicode hex="00BA"/>
  <outline>
    <contour>
      <point x="152" y="490" type="line"/>
      <point x="45" y="603" type="line"/>
      <point x="45" y="604" type="line"/>
      <point x="388" y="604" type="line"/>
      <point x="388" y="490" type="line"/>
    </contour>
  </outline>
</glyph>
<glyph name="onehalf.color2" format="2">
  <advance width="600"/>
  <unicode hex="00BD"/>
  <outline>
    <contour>
      <point x="333" y="604" type="line"/>
      <point x="455" y="604" type="line"/>
      <point x="455" y="470" type="line"/>
      <point x="231" y="470" type="line"/>
    </contour>
  </outline>
</glyph>
<glyph name="threequarters.color0" format="2">
  <advance width="600"/>
  <unicode hex="00BE"/>
  <outline>
    <contour>
      <point x="419" y="638" type="line"/>
      <point x="264" y="638" type="line"/>
      <point x="264" y="794" type="line"/>
      <point x="265" y="794" type="line"/>
      <point x="419" y="703" type="line"/>
    </contour>
  </outline>
</glyph>
<glyph name="questiondown.color0" format="2">
  <advance width="600"/>
  <unicode hex="00BF"/>
  <outline>
    <contour>
      <point x="459" y="700" type="line"/>
      <point x="691" y="700" type="line"/>
      <point x="691" y="496" type="line"/>
      <point x="459" y="496" type="line"/>
    </contour>
  </outline>
</glyph>
<glyph name="questiondown.color1" format="2">
  <advance width="600"/>
  <unicode hex="00BF"/>
  <outline>
    <contour>
      <point x="55" y="177" type="line"/>
      <point x="55" y="234" type="line"/>
      <point x="308" y="234" type="line"/>
      <point x="309" y="234" type="line"/>
      <point x="309" y="-30" type="line"/>
      <point x="308" y="-30" type="line"/>
    </contour>
  </outline>
</glyph>
<glyph name="questiondown.color4" format="2">
  <advance width="600"/>
  <unicode hex="00BF"/>
  <outline>
    <contour>
      <point x="257" y="438" type="line"/>
      <point x="458" y="438" type="line"/>
      <point x="458" y="234" type="line"/>
      <point x="55" y="234" type="line"/>
      <point x="55" y="235" type="line"/>
    </contour>
  </outline>
</glyph>
<glyph name="Agrave.color2" format="2">
  <advance width="600"/>
  <unicode hex="00C0"/>
  <outline>
    <contour>
      <point x="892" y="0" type="line"/>
      <point x="638" y="0" type="line"/>
      <point x="638" y="486" type="line"/>
      <point x="639" y="486" type="line"/>
      <point x="892" y="486" type="line"/>
    </contour>
  </outline>
</glyph>
<glyph name="AE.color1" format="2">
  <advance width="600"/>
  <unicode hex="00C6"/>
  <outline>
    <contour>
      <point x="289" y="0" type="line"/>
      <point x="35" y="0" type="line"/>
      <point x="35" y="523" type="line"/>
      <point x="288" y="730" type="line"/>
      <point x="289" y="730" type="line"/>
    </contour>
  </outline>
</glyph>
<glyph name="AE.color3" format="2">
  <advance width="600"/>
  <unicode hex="00C6"/>
  <outline>
    <contour>
      <point x="1212" y="263" type="line"/>
      <point x="852" y="263" type="line"/>
      <point x="852" y="467" type="line"/>
      <point x="1212" y="467" type="line"/>
    </contour>
  </outline>
</glyph>
<glyph name="Ccedilla" format="2">
  <advance width="862"/>
  <unicode hex="00C7"/>
  <anchor x="482" y="0" name="bottom"/>
  <anchor x="476" y="730" name="top"/>
  <outline>
    <contour>
      <point x="25" y="523" type="line"/>
      <point x="278" y="730" type="line"/>
      <point x="279" y="730" type="line"/>
      <point x="279" y="244" type="line"/>
      <point x="25" y="244" type="line"/>
    </contour>
    <contour>
      <point x="660" y="730" type="line"/>
      <point x="862" y="487" type="line"/>
      <point x="862" y="486" type="line"/>
      <point x="279" y="486" type="line"/>
      <point x="279" y="730" type="line"/>
    </contour>
    <contour>
      <point x="227" y="0" type="line"/>
      <point x="25" y="243" type="line"/>
      <point x="25" y="244" type="line"/>
      <point x="862" y="244" type="line"/>
      <point x="660" y="0" type="line"/>
    </contour>
    <contour>
      <point x="345" y="-260" type="line"/>
      <point x="285" y="-169" type="line"/>
      <point x="285" y="-168" type="line"/>
      <point x="503" y="-168" type="line"/>
      <point x="503" y="-260" type="line"/>
    </contour>
    <contour>
      <point x="611" y="-204" type="line"/>
      <point x="504" y="-260" type="line"/>
      <point x="503" y="-260" type="line"/>
      <point x="503" y="-126" type="line"/>
      <point x="611" y="-126" type="line"/>
    </contour>
    <contour>
      <point x="541" y="-32" type="line"/>
      <point x="611" y="-125" type="line"/>
      <point x="611" y="-126" type="line"/>
      <point x="461" y="-126" type="line"/>
      <point x="507" y="-32" type="line"/>
    </contour>
    <contour>
      <point x="345" y="-126" type="line"/>
      <point x="345" y="-125" type="line"/>
      <point x="422" y="0" type="line"/>
      <point x="527" y="0" type="line"/>
      <point x="527" y="-1" type="line"/>
      <point x="461" y="-126" type="line"/>
    </contour>
  </outline>
</glyph>
<glyph name="Egrave.color3" format="2">
  <advance width="600"/>
  <unicode hex="00C8"/>
  <outline>
    <contour>
      <point x="801" y="0" type="line"/>
      <point x="237" y="0" type="line"/>
      <point x="35" y="243" type="line"/>
      <point x="35" y="244" type="line"/>
      <point x="801" y="244" type="line"/>
    </contour>
  </outline>
</glyph>
<glyph name="Edieresis.color4" format="2">
  <advance width="600"/>
  <unicode hex="00CB"/>
  <outline>
    <contour>
      <point x="406" y="788" type="line"/>
      <point x="260" y="788" type="line"/>
      <point x="260" y="900" type="line"/>
      <point x="406" y="900" type="line"/>
    </contour>
  </outline>
</glyph>
<glyph name="Iacute.color4" format="2">
  <advance width="600"/>
  <unicode hex="00CD"/>
  <outline>
    <contour>
      <point x="25" y="244" type="line"/>
      <point x="245" y="244" type="line"/>
      <point x="245" y="0" type="line"/>
      <point x="25" y="1" type="line"/>
    </contour>
  </outline>
</glyph>
<glyph name="Iacute.color5" format="2">
  <advance width="600"/>
  <unicode hex="00CD"/>
  <outline>
    <contour>
      <point x="287" y="760" type="line"/>
      <point x="322" y="900" type="line"/>
      <point x="528" y="900" type="line"/>
      <point x="528" y="899" type="line"/>
      <point x="413" y="760" type="line"/>
    </contour>
  </outline>
</glyph>
<glyph name="Eth.color1" format="2">
  <advance width="600"/>
  <unicode hex="00D0"/>
  <outline>
    <contour>
      <point x="81" y="730" type="line"/>
      <point x="334" y="730" type="line"/>
      <point x="335" y="730" type="line"/>
      <point x="335" y="240" type="line"/>
      <point x="81" y="240" type="line"/>
    </contour>
  </outline>
</glyph>
<glyph name="Oslash" format="2">
  <advance width="907"/>
  <unicode hex="00D8"/>
  <anchor x="478" y="730" name="top"/>
  <outline>
    <contour>
      <point x="155" y="0" type="line"/>
      <point x="42" y="0" type="line"/>
      <point x="42" y="2" type="line"/>
      <point x="754" y="730" type="line"/>
      <point x="867" y="730" type="line"/>
      <point x="867" y="729" type="line"/>
    </contour>
    <contour>
      <point x="25" y="523" type="line"/>
      <point x="278" y="730" type="line"/>
      <point x="279" y="730" type="line"/>
      <point x="279" y="244" type="line"/>
      <point x="25" y="244" type="line"/>
    </contour>
    <contour>
      <point x="680" y="730" type="line"/>
      <point x="882" y="487" type="line"/>
      <point x="882" y="486" type="line"/>
      <point x="279" y="486" type="line"/>
      <point x="279" y="730" type="line"/>
    </contour>
    <contour>
      <point x="882" y="197" type="line"/>
      <point x="629" y="0" type="line"/>
      <point x="628" y="0" type="line"/>
      <point x="628" y="486" type="line"/>
      <point x="882" y="486" type="line"/>
    </contour>
    <contour>
      <point x="227" y="0" type="line"/>
      <point x="25" y="243" type="line"/>
      <point x="25" y="244" type="line"/>
      <point x="628" y="244" type="line"/>
      <point x="628" y="0" type="line"/>
    </contour>
  </outline>
</glyph>
<glyph name="Thorn" format="2">
  <advance width="897"/>
  <unicode hex="00DE"/>
  <outline>
    <contour>
      <point x="25" y="730" type="line"/>
      <point x="279" y="730" type="line"/>
      <point x="279" y="0" type="line"/>
      <point x="25" y="0" type="line"/>
    </contour>
    <contour>
      <point x="680" y="650" type="line"/>
      <point x="882" y="407" type="line"/>
      <point x="882" y="406" type="line"/>
      <point x="279" y="406" type="line"/>
      <point x="279" y="650" type="line"/>
    </contour>
    <contour>
      <point x="882" y="290" type="line"/>
      <point x="629" y="93" type="line"/>
      <point x="628" y="93" type="line"/>
      <point x="628" y="406" type="line"/>
      <point x="882" y="406" type="line"/>
    </contour>
    <contour>
      <point x="279" y="93" type="line"/>
      <point x="279" y="337" type="line"/>
      <point x="628" y="337" type="line"/>
      <point x="628" y="336" type="line"/>
      <point x="628" y="93" type="line"/>
    </contour>
  </outline>
</glyph>
<glyph name="agrave.color4" format="2">
  <advance width="600"/>
  <unicode hex="00E0"/>
  <outline>
    <contour>
      <point x="509" y="590" type="line"/>
      <point x="403" y="590" type="line"/>
      <point x="298" y="819" type="line"/>
      <point x="298" y="820" type="line"/>
      <point x="474" y="820" type="line"/>
    </contour>
  </outline>
</glyph>
<glyph name="aacute" format="2">
  <advance width="827"/>
  <unicode hex="00E1"/>
  <anchor x="441" y="0" name="bottom"/>
  <anchor x="452" y="530" name="top"/>
  <outline>
    <contour>
      <point x="35" y="423" type="line"/>
      <point x="248" y="530" type="line"/>
      <point x="249" y="530" type="line"/>
      <point x="249" y="204" type="line"/>
      <point x="35" y="204" type="line"/>
    </contour>
    <contour>
      <point x="685" y="530" type="line"/>
      <point x="792" y="327" type="line"/>
      <point x="792" y="326" type="line"/>
      <point x="249" y="326" type="line"/>
      <point x="249" y="530" type="line"/>
    </contour>
    <contour>
      <point x="792" y="0" type="line"/>
      <point x="579" y="0" type="line"/>
      <point x="578" y="0" type="line"/>
      <point x="578" y="326" type="line"/>
      <point x="792" y="326" type="line"/>
    </contour>
    <contour>
      <point x="142" y="0" type="line"/>
      <point x="35" y="203" type="line"/>
      <point x="35" y="204" type="line"/>
      <point x="578" y="204" type="line"/>
      <point x="578" y="0" type="line"/>
    </contour>
    <contour>
      <point x="379" y="590" type="line"/>
      <point x="414" y="820" type="line"/>
      <point x="590" y="820" type="line"/>
      <point x="590" y="819" type="line"/>
      <point x="485" y="590" type="line"/>
    </contour>
  </outline>
</glyph>
<glyph name="atilde" format="2">
  <advance width="827"/>
  <unicode hex="00E3"/>
  <anchor x="441" y="0" name="bottom"/>
  <anchor x="452" y="530" name="top"/>
  <outline>
    <contour>
      <point x="35" y="423" type="line"/>
      <point x="248" y="530" type="line"/>
      <point x="249" y="530" type="line"/>
      <point x="249" y="204" type="line"/>
      <point x="35" y="204" type="line"/>
    </contour>
    <contour>
      <point x="685" y="530" type="line"/>
      <point x="792" y="327" type="line"/>
      <point x="792" y="326" type="line"/>
      <point x="249" y="326" type="line"/>
      <point x="249" y="530" type="line"/>
    </contour>
    <contour>
      <point x="792" y="0" type="line"/>
      <point x="579" y="0" type="line"/>
      <point x="578" y="0" type="line"/>
      <point x="578" y="326" type="line"/>
      <point x="792" y="326" type="line"/>
    </contour>
    <contour>
      <point x="142" y="0" type="line"/>
      <point x="35" y="203" type="line"/>
      <point x="35" y="204" type="line"/>
      <point x="578" y="204" type="line"/>
      <point x="578" y="0" type="line"/>
    </contour>
    <contour>
      <point x="239" y="601" type="line"/>
      <point x="239" y="722" type="line"/>
      <point x="359" y="703" type="line"/>
      <point x="359" y="601" type="line"/>
    </contour>
    <contour>
      <point x="637" y="749" type="line"/>
      <point x="637" y="630" type="line"/>
      <point x="518" y="640" type="line"/>
      <point x="518" y="749" type="line"/>
    </contour>
    <contour>
      <point x="239" y="722" type="line"/>
      <point x="239" y="723" type="line"/>
      <point x="368" y="762" type="line"/>
      <point x="369" y="762" type="line"/>
      <point x="637" y="630" type="line"/>
      <point x="637" y="629" type="line"/>
      <point x="509" y="590" type="line"/>
      <point x="508" y="590" type="line"/>
    </contour>
  </outline>
</glyph>
<glyph name="adieresis.color5" format="2">
  <advance width="600"/>
  <unicode hex="00E4"/>
  <outline>
    <contour>
      <point x="654" y="640" type="line"/>
      <point x="478" y="640" type="line"/>
      <point x="478" y="772" type="line"/>
      <point x="654" y="772" type="line"/>
    </contour>
  </outline>
</glyph>
<glyph name="aring.color2" format="2">
  <advance width="600"/>
  <unicode hex="00E5"/>
  <outline>
    <contour>
      <point x="792" y="0" type="line"/>
      <point x="579" y="0" type="line"/>
      <point x="578" y="0" type="line"/>
      <point x="578" y="326" type="line"/>
      <point x="792" y="326" type="line"/>
    </contour>
  </outline>
</glyph>
<glyph name="aring.color5" format="2">
  <advance width="600"/>
  <unicode hex="00E5"/>
  <outline>
    <contour>
      <point x="550" y="820" type="line"/>
      <point x="610" y="736" type="line"/>
      <point x="610" y="736" type="line"/>
      <point x="380" y="736" type="line"/>
      <point x="380" y="820" type="line"/>
    </contour>
  </outline>
</glyph>
<glyph name="aring" format="2">
  <advance width="827"/>
  <unicode hex="00E5"/>
  <anchor x="441" y="0" name="bottom"/>
  <anchor x="446" y="770" name="top"/>
  <outline>
    <contour>
      <point x="35" y="423" type="line"/>
      <point x="248" y="530" type="line"/>
      <point x="249" y="530" type="line"/>
      <point x="249" y="204" type="line"/>
      <point x="35" y="204" type="line"/>
    </contour>
    <contour>
      <point x="685" y="530" type="line"/>
      <point x="792" y="327" type="line"/>
      <point x="792" y="326" type="line"/>
      <point x="249" y="326" type="line"/>
      <point x="249" y="530" type="line"/>
    </contour>
    <contour>
      <point x="792" y="0" type="line"/>
      <point x="579" y="0" type="line"/>
      <point x="578" y="0" type="line"/>
      <point x="578" y="326" type="line"/>
      <point x="792" y="326" type="line"/>
    </contour>
    <contour>
      <point x="142" y="0" type="line"/>
      <point x="35" y="203" type="line"/>
      <point x="35" y="204" type="line"/>
      <point x="578" y="204" type="line"/>
      <point x="578" y="0" type="line"/>
    </contour>
    <contour>
      <point x="284" y="758" type="line"/>
      <point x="380" y="820" type="line"/>
      <point x="380" y="820" type="line"/>
      <point x="380" y="684" type="line"/>
      <point x="284" y="684" type="line"/>
    </contour>
    <contour>
      <point x="550" y="820" type="line"/>
      <point x="610" y="736" type="line"/>
      <point x="610" y="736" type="line"/>
      <point x="380" y="736" type="line"/>
      <point x="380" y="820" type="line"/>
    </contour>
    <contour>
      <point x="610" y="658" type="line"/>
      <point x="514" y="602" type="line"/>
      <point x="514" y="602" type="line"/>
      <point x="514" y="736" type="line"/>
      <point x="610" y="736" type="line"/>
    </contour>
    <contour>
      <point x="344" y="602" type="line"/>
      <point x="284" y="684" type="line"/>
      <point x="284" y="684" type="line"/>
      <point x="514" y="684" type="line"/>
      <point x="514" y="602" type="line"/>
    </contour>
  </outline>
</glyph>
<glyph name="ae.color0" format="2">
  <advance width="600"/>
  <unicode hex="00E6"/>
  <outline>
    <contour>
      <point x="142" y="0" type="line"/>
      <point x="35" y="203" type="line"/>
      <point x="35" y="204" type="line"/>
      <point x="588" y="204" type="line"/>
      <point x="802" y="0" type="line"/>
    </contour>
  </outline>
</glyph>
<glyph name="ae.color2" format="2">
  <advance width="600"/>
  <unicode hex="00E6"/>
  <outline>
    <contour>
      <point x="802" y="0" type="line"/>
      <point x="588" y="199" type="line"/>
      <point x="588" y="326" type="line"/>
      <point x="802" y="326" type="line"/>
    </contour>
  </outline>
</glyph>
<glyph name="edieresis.color6" format="2">
  <advance width="600"/>
  <unicode hex="00EB"/>
  <outline>
    <contour>
      <point x="644" y="640" type="line"/>
      <point x="468" y="640" type="line"/>
      <point x="468" y="772" type="line"/>
      <point x="644" y="772" type="line"/>
    </contour>
  </outline>
</glyph>
<glyph name="eth.color2" format="2">
  <advance width="600"/>
  <unicode hex="00F0"/>
  <outline>
    <contour>
      <point x="439" y="530" type="line"/>
      <point x="299" y="794" type="line"/>
      <point x="533" y="794" type="line"/>
      <point x="783" y="329" type="line"/>
      <point x="782" y="329" type="line"/>
    </contour>
  </outline>
</glyph>
<glyph name="ocircumflex.color4" format="2">
  <advance width="600"/>
  <unicode hex="00F4"/>
  <outline>
    <contour>
      <point x="642" y="592" type="line"/>
      <point x="485" y="592" type="line"/>
      <point x="381" y="739" type="line"/>
      <point x="463" y="770" type="line"/>
      <point x="504" y="770" type="line"/>
    </contour>
  </outline>
</glyph>
<glyph name="odieresis" format="2">
  <advance width="837"/>
  <unicode hex="00F6"/>
  <anchor x="422" y="0" name="bottom"/>
  <anchor x="665" y="530" name="horn"/>
  <anchor x="442" y="530" name="top"/>
  <outline>
    <contour>
      <point x="25" y="423" type="line"/>
      <point x="238" y="530" type="line"/>
      <point x="239" y="530" type="line"/>
      <point x="239" y="204" type="line"/>
      <point x="25" y="204" type="line"/>
    </contour>
    <contour>
      <point x="705" y="530" type="line"/>
      <point x="812" y="327" type="line"/>
      <point x="812" y="326" type="line"/>
      <point x="239" y="326" type="line"/>
      <point x="239" y="530" type="line"/>
    </contour>
    <contour>
      <point x="812" y="107" type="line"/>
      <point x="599" y="0" type="line"/>
      <point x="598" y="0" type="line"/>
      <point x="598" y="326" type="line"/>
      <point x="812" y="326" type="line"/>
    </contour>
    <contour>
      <point x="132" y="0" type="line"/>
      <point x="25" y="203" type="line"/>
      <point x="25" y="204" type="line"/>
      <point x="598" y="204" type="line"/>
      <point x="598" y="0" type="line"/>
    </contour>
    <contour>
      <point x="396" y="640" type="line"/>
      <point x="220" y="640" type="line"/>
      <point x="220" y="772" type="line"/>
      <point x="396" y="772" type="line"/>
    </contour>
    <contour>
      <point x="644" y="640" type="line"/>
      <point x="468" y="640" type="line"/>
      <point x="468" y="772" type="line"/>
      <point x="644" y="772" type="line"/>
    </contour>
  </outline>
</glyph>
<glyph name="ydieresis.color0" format="2">
  <advance width="600"/>
  <unicode hex="00FF"/>
  <outline>
    <contour>
      <point x="142" y="0" type="line"/>
      <point x="35" y="203" type="line"/>
      <point x="35" y="204" type="line"/>
      <point x="529" y="204" type="line"/>
      <point x="529" y="0" type="line"/>
    </contour>
  </outline>
</glyph>
<glyph name="ydieresis.color5" format="2">
  <advance width="600"/>
  <unicode hex="00FF"/>
  <outline>
    <contour>
      <point x="624" y="640" type="line"/>
      <point x="448" y="640" type="line"/>
      <point x="448" y="772" type="line"/>
      <point x="624" y="772" type="line"/>
    </contour>
  </outline>
</glyph>
<glyph name="ydieresis" format="2">
  <advance width="779"/>
  <unicode hex="00FF"/>
  <anchor x="402" y="-200" name="bottom"/>
  <anchor x="422" y="530" name="top"/>
  <outline>
    <contour>
      <point x="142" y="0" type="line"/>
      <point x="35" y="203" type="line"/>
      <point x="35" y="204" type="line"/>
      <point x="529" y="204" type="line"/>
      <point x="529" y="0" type="line"/>
    </contour>
    <contour>
      <point x="744" y="-104" type="line"/>
      <point x="531" y="-206" type="line"/>
      <point x="530" y="-206" type="line"/>
      <point x="530" y="530" type="line"/>
      <point x="744" y="530" type="line"/>
    </contour>
    <contour>
      <point x="35" y="489" type="line"/>
      <point x="248" y="536" type="line"/>
      <point x="249" y="536" type="line"/>
      <point x="249" y="204" type="line"/>
      <point x="35" y="204" type="line"/>
    </contour>
    <contour>
      <point x="137" y="-206" type="line"/>
      <point x="35" y="-27" type="line"/>
      <point x="35" y="-26" type="line"/>
      <point x="530" y="-26" type="line"/>
      <point x="530" y="-206" type="line"/>
    </contour>
    <contour>
      <point x="376" y="640" type="line"/>
      <point x="200" y="640" type="line"/>
      <point x="200" y="772" type="line"/>
      <point x="376" y="772" type="line"/>
    </contour>
    <contour>
      <point x="624" y="640" type="line"/>
      <point x="448" y="640" type="line"/>
      <point x="448" y="772" type="line"/>
      <point x="624" y="772" type="line"/>
    </contour>
  </outline>
</glyph>
<glyph name="Amacron" format="2">
  <advance width="927"/>
  <unicode hex="0100"/>
  <anchor x="462" y="0" name="bottom"/>
  <anchor x="486" y="730" name="top"/>
  <outline>
    <contour>
      <point x="35" y="523" type="line"/>
      <point x="288" y="730" type="line"/>
      <point x="289" y="730" type="line"/>
      <point x="289" y="0" type="line"/>
      <point x="35" y="0" type="line"/>
    </contour>
    <contour>
      <point x="690" y="730" type="line"/>
      <point x="892" y="487" type="line"/>
      <point x="892" y="486" type="line"/>
      <point x="289" y="486" type="line"/>
      <point x="289" y="730" type="line"/>
    </contour>
    <contour>
      <point x="892" y="0" type="line"/>
      <point x="638" y="0" type="line"/>
      <point x="638" y="486" type="line"/>
      <point x="639" y="486" type="line"/>
      <point x="892" y="486" type="line"/>
    </contour>
    <contour>
      <point x="638" y="173" type="line"/>
      <point x="289" y="173" type="line"/>
      <point x="289" y="417" type="line"/>
      <point x="638" y="417" type="line"/>
      <point x="638" y="416" type="line"/>
    </contour>
    <contour>
      <point x="684" y="798" type="line"/>
      <point x="288" y="798" type="line"/>
      <point x="288" y="900" type="line"/>
      <point x="684" y="900" type="line"/>
    </contour>
  </outline>
</glyph>
<glyph name="Abreve.color6" format="2">
  <advance width="600"/>
  <unicode hex="0102"/>
  <outline>
    <contour>
      <point x="599" y="760" type="line"/>
      <point x="354" y="760" type="line"/>
      <point x="260" y="860" type="line"/>
      <point x="693" y="860" type="line"/>
    </contour>
  </outline>
</glyph>
<glyph name="abreve.color6" format="2">
  <advance width="600"/>
  <unicode hex="0103"/>
  <outline>
    <contour>
      <point x="555" y="598" type="line"/>
      <point x="300" y="598" type="line"/>
      <point x="229" y="720" type="line"/>
      <point x="626" y="720" type="line"/>
    </contour>
  </outline>
</glyph>
<glyph name="cdotaccent.color3" format="2">
  <advance width="600"/>
  <unicode hex="010B"/>
  <outline>
    <contour>
      <point x="515" y="640" type="line"/>
      <point x="339" y="640" type="line"/>
      <point x="339" y="772" type="line"/>
      <point x="515" y="772" type="line"/>
    </contour>
  </outline>
</glyph>
<glyph name="Ccaron.color4" format="2">
  <advance width="600"/>
  <unicode hex="010C"/>
  <outline>
    <contour>
      <point x="710" y="900" type="line"/>
      <point x="556" y="760" type="line"/>
      <point x="402" y="760" type="line"/>
      <point x="556" y="900" type="line"/>
    </contour>
  </outline>
</glyph>
<glyph name="ccaron.color4" format="2">
  <advance width="600"/>
  <unicode hex="010D"/>
  <outline>
    <contour>
      <point x="624" y="750" type="line"/>
      <point x="480" y="582" type="line"/>
      <point x="336" y="582" type="line"/>
      <point x="470" y="750" type="line"/>
    </contour>
  </outline>
</glyph>
<glyph name="Dcaron" format="2">
  <advance width="947"/>
  <unicode hex="010E"/>
  <anchor x="166" y="361" name="stroke"/>
  <anchor x="476" y="730" name="top"/>
  <outline>
    <contour>
      <point x="35" y="730" type="line"/>
      <point x="288" y="730" type="line"/>
      <point x="289" y="730" type="line"/>
      <point x="289" y="240" type="line"/>
      <point x="35" y="240" type="line"/>
    </contour>
    <contour>
      <point x="720" y="730" type="line"/>
      <point x="922" y="487" type="line"/>
      <point x="922" y="486" type="line"/>
      <point x="289" y="486" type="line"/>
      <point x="289" y="730" type="line"/>
    </contour>
    <contour>
      <point x="922" y="193" type="line"/>
      <point x="669" y="-4" type="line"/>
      <point x="668" y="-4" type="line"/>
      <point x="668" y="486" type="line"/>
      <point x="922" y="486" type="line"/>
    </contour>
    <contour>
      <point x="35" y="-4" type="line"/>
      <point x="35" y="239" type="line"/>
      <point x="35" y="240" type="line"/>
      <point x="668" y="240" type="line"/>
      <point x="668" y="-4" type="line"/>
    </contour>
    <contour>
      <point x="244" y="900" type="line"/>
      <point x="401" y="900" type="line"/>
      <point x="535" y="793" type="line"/>
      <point x="443" y="760" type="line"/>
      <point x="402" y="760" type="line"/>
    </contour>
    <contour>
      <point x="710" y="900" type="line"/>
      <point x="556" y="760" type="line"/>
      <point x="402" y="760" type="line"/>
      <point x="556" y="900" type="line"/>
    </contour>
  </outline>
</glyph>
<glyph name="dcaron.color4" format="2">
  <advance width="600"/>
  <unicode hex="010F"/>
  <outline>
    <contour>
      <point x="569" y="530" type="line"/>
      <point x="569" y="794" type="line"/>
      <point x="783" y="794" type="line"/>
      <point x="783" y="329" type="line"/>
      <point x="782" y="329" type="line"/>
    </contour>
  </outline>
</glyph>
<glyph name="Dcroat.color0" format="2">
  <advance width="600"/>
  <unicode hex="0110"/>
  <outline>
    <contour>
      <point x="599" y="269" type="line"/>
      <point x="5" y="269" type="line"/>
      <point x="5" y="453" type="line"/>
      <point x="599" y="453" type="line"/>
      <point x="599" y="452" type="line"/>
    </contour>
  </outline>
</glyph>
<glyph name="Dcroat.color3" format="2">
  <advance width="600"/>
  <unicode hex="0110"/>
  <outline>
    <contour>
      <point x="968" y="193" type="line"/>
      <point x="715" y="-4" type="line"/>
      <point x="714" y="-4" type="line"/>
      <point x="714" y="486" type="line"/>
      <point x="968" y="486" type="line"/>
    </contour>
  </outline>
</glyph>
<glyph name="dcroat.color0" format="2">
  <advance width="600"/>
  <unicode hex="0111"/>
  <outline>
    <contour>
      <point x="841" y="562" type="line"/>
      <point x="142" y="562" type="line"/>
      <point x="142" y="700" type="line"/>
      <point x="841" y="700" type="line"/>
      <point x="841" y="656" type="line"/>
    </contour>
  </outline>
</glyph>
<glyph name="dcroat.color4" format="2">
  <advance width="600"/>
  <unicode hex="0111"/>
  <outline>
    <contour>
      <point x="147" y="0" type="line"/>
      <point x="45" y="203" type="line"/>
      <point x="45" y="204" type="line"/>
      <point x="569" y="204" type="line"/>
      <point x="569" y="0" type="line"/>
    </contour>
  </outline>
</glyph>
<glyph name="Emacron.color0" format="2">
  <advance width="600"/>
  <unicode hex="0112"/>
  <outline>
    <contour>
      <point x="35" y="730" type="line"/>
      <point x="289" y="730" type="line"/>
      <point x="289" y="244" type="line"/>
      <point x="35" y="244" type="line"/>
    </contour>
  </outline>
</glyph>
<glyph name="Ebreve.color5" format="2">
  <advance width="600"/>
  <unicode hex="0114"/>
  <outline>
    <contour>
      <point x="484" y="860" type="line"/>
      <point x="521" y="900" type="line"/>
      <point x="697" y="900" type="line"/>
      <point x="697" y="899" type="line"/>
      <point x="663" y="860" type="line"/>
    </contour>
  </outline>
</glyph>
<glyph name="eogonek.color6" format="2">
  <advance width="600"/>
  <unicode hex="0119"/>
  <outline>
    <contour>
      <point x="294" y="-86" type="line"/>
      <point x="294" y="-85" type="line"/>
      <point x="371" y="0" type="line"/>
      <point x="496" y="0" type="line"/>
      <point x="496" y="-1" type="line"/>
      <point x="422" y="-86" type="line"/>
    </contour>
  </outline>
</glyph>
<glyph name="Ecaron.color5" format="2">
  <advance width="600"/>
  <unicode hex="011A"/>
  <outline>
    <contour>
      <point x="690" y="900" type="line"/>
      <point x="536" y="760" type="line"/>
      <point x="382" y="760" type="line"/>
      <point x="536" y="900" type="line"/>
    </contour>
  </outline>
</glyph>
<glyph name="ecaron.color6" format="2">
  <advance width="600"/>
  <unicode hex="011B"/>
  <outline>
    <contour>
      <point x="639" y="750" type="line"/>
      <point x="495" y="582" type="line"/>
      <point x="351" y="582" type="line"/>
      <point x="485" y="750" type="line"/>
    </contour>
  </outline>
</glyph>
<glyph name="Gcircumflex.color3" format="2">
  <advance width="600"/>
  <unicode hex="011C"/>
  <outline>
    <contour>
      <point x="405" y="262" type="line"/>
      <point x="405" y="465" type="line"/>
      <point x="405" y="466" type="line"/>
      <point x="728" y="466" type="line"/>
      <point x="728" y="263" type="line"/>
      <point x="728" y="262" type="line"/>
    </contour>
  </outline>
</glyph>
<glyph name="Gbreve.color5" format="2">
  <advance width="600"/>
  <unicode hex="011E"/>
  <outline>
    <contour>
      <point x="486" y="860" type="line"/>
      <point x="307" y="860" type="line"/>
      <point x="273" y="898" type="line"/>
      <point x="273" y="900" type="line"/>
      <point x="449" y="900" type="line"/>
    </contour>
  </outline>
</glyph>
<glyph name="Gbreve.color7" format="2">
  <advance width="600"/>
  <unicode hex="011E"/>
  <outline>
    <contour>
      <point x="646" y="760" type="line"/>
      <point x="401" y="760" type="line"/>
      <point x="307" y="860" type="line"/>
      <point x="740" y="860" type="line"/>
    </contour>
  </outline>
</glyph>
<glyph name="gbreve.color6" format="2">
  <advance width="600"/>
  <unicode hex="011F"/>
  <outline>
    <contour>
      <point x="490" y="720" type="line"/>
      <point x="527" y="780" type="line"/>
      <point x="663" y="780" type="line"/>
      <point x="663" y="779" type="line"/>
      <point x="626" y="720" type="line"/>
    </contour>
  </outline>
</glyph>
<glyph name="Gdotaccent.color4" format="2">
  <advance width="600"/>
  <unicode hex="0120"/>
  <outline>
    <contour>
      <point x="982" y="197" type="line"/>
      <point x="729" y="0" type="line"/>
      <point x="728" y="0" type="line"/>
      <point x="728" y="466" type="line"/>
      <point x="729" y="466" type="line"/>
      <point x="982" y="254" type="line"/>
    </contour>
  </outline>
</glyph>
<glyph name="Gdotaccent" format="2">
  <advance width="1007"/>
  <unicode hex="0120"/>
  <anchor x="535" y="0" name="bottom"/>
  <anchor x="533" y="730" name="top"/>
  <outline>
    <contour>
      <point x="25" y="523" type="line"/>
      <point x="278" y="730" type="line"/>
      <point x="279" y="730" type="line"/>
      <point x="279" y="244" type="line"/>
      <point x="25" y="244" type="line"/>
    </contour>
    <contour>
      <point x="780" y="730" type="line"/>
      <point x="982" y="487" type="line"/>
      <point x="982" y="486" type="line"/>
      <point x="279" y="486" type="line"/>
      <point x="279" y="730" type="line"/>
    </contour>
    <contour>
      <point x="227" y="0" type="line"/>
      <point x="25" y="243" type="line"/>
      <point x="25" y="244" type="line"/>
      <point x="728" y="244" type="line"/>
      <point x="728" y="0" type="line"/>
    </contour>
    <contour>
      <point x="405" y="262" type="line"/>
      <point x="405" y="465" type="line"/>
      <point x="405" y="466" type="line"/>
      <point x="728" y="466" type="line"/>
      <point x="728" y="263" type="line"/>
      <point x="728" y="262" type="line"/>
    </contour>
    <contour>
      <point x="982" y="197" type="line"/>
      <point x="729" y="0" type="line"/>
      <point x="728" y="0" type="line"/>
      <point x="728" y="466" type="line"/>
      <point x="729" y="466" type="line"/>
      <point x="982" y="254" type="line"/>
    </contour>
    <contour>
      <point x="621" y="768" type="line"/>
      <point x="445" y="768" type="line"/>
      <point x="445" y="900" type="line"/>
      <point x="621" y="900" type="line"/>
    </contour>
  </outline>
</glyph>
<glyph name="gcommaaccent" format="2">
  <advance width="830"/>
  <unicode hex="0123"/>
  <anchor x="452" y="530" name="top"/>
  <outline>
    <contour>
      <point x="744" y="-104" type="line"/>
      <point x="531" y="-206" type="line"/>
      <point x="530" y="-206" type="line"/>
      <point x="530" y="326" type="line"/>
      <point x="744" y="326" type="line"/>
    </contour>
    <contour>
      <point x="137" y="0" type="line"/>
      <point x="35" y="203" type="line"/>
      <point x="35" y="204" type="line"/>
      <point x="530" y="204" type="line"/>
      <point x="530" y="0" type="line"/>
    </contour>
    <contour>
      <point x="35" y="423" type="line"/>
      <point x="248" y="530" type="line"/>
      <point x="249" y="530" type="line"/>
      <point x="249" y="204" type="line"/>
      <point x="35" y="204" type="line"/>
    </contour>
    <contour>
      <point x="744" y="326" type="line"/>
      <point x="249" y="326" type="line"/>
      <point x="249" y="530" type="line"/>
      <point x="830" y="530" type="line"/>
      <point x="830" y="529" type="line"/>
    </contour>
    <contour>
      <point x="137" y="-206" type="line"/>
      <point x="35" y="-27" type="line"/>
      <point x="35" y="-26" type="line"/>
      <point x="530" y="-26" type="line"/>
      <point x="530" y="-206" type="line"/>
    </contour>
    <contour>
      <point x="518" y="698" type="line"/>
      <point x="518" y="590" type="line"/>
      <point x="386" y="590" type="line"/>
      <point x="386" y="800" type="line"/>
      <point x="387" y="800" type="line"/>
    </contour>
  </outline>
</glyph>
<glyph name="Hcircumflex" format="2">
  <advance width="927"/>
  <unicode hex="0124"/>
  <anchor x="496" y="730" name="top"/>
  <outline>
    <contour>
      <point x="35" y="730" type="line"/>
      <point x="288" y="730" type="line"/>
      <point x="289" y="730" type="line"/>
      <point x="289" y="0" type="line"/>
      <point x="35" y="0" type="line"/>
    </contour>
    <contour>
      <point x="892" y="-4" type="line"/>
      <point x="639" y="-4" type="line"/>
      <point x="638" y="-4" type="line"/>
      <point x="638" y="730" type="line"/>
      <point x="892" y="730" type="line"/>
    </contour>
    <contour>
      <point x="289" y="243" type="line"/>
      <point x="289" y="487" type="line"/>
      <point x="638" y="487" type="line"/>
      <point x="638" y="486" type="line"/>
      <point x="638" y="243" type="line"/>
    </contour>
    <contour>
      <point x="736" y="760" type="line"/>
      <point x="579" y="760" type="line"/>
      <point x="445" y="867" type="line"/>
      <point x="537" y="900" type="line"/>
      <point x="578" y="900" type="line"/>
      <point x="736" y="761" type="line"/>
    </contour>
    <contour>
      <point x="270" y="760" type="line"/>
      <point x="270" y="761" type="line"/>
      <point x="424" y="900" type="line"/>
      <point x="578" y="900" type="line"/>
      <point x="424" y="760" type="line"/>
    </contour>
  </outline>
</glyph>
<glyph name="hcircumflex.color3" format="2">
  <advance width="600"/>
  <unicode hex="0125"/>
  <outline>
    <contour>
      <point x="748" y="560" type="line"/>
      <point x="591" y="560" type="line"/>
      <point x="457" y="667" type="line"/>
      <point x="549" y="700" type="line"/>
      <point x="590" y="700" type="line"/>
      <point x="748" y="561" type="line"/>
    </contour>
  </outline>
</glyph>
<glyph name="Hbar.color1" format="2">
  <advance width="600"/>
  <unicode hex="0126"/>
  <outline>
    <contour>
      <point x="90" y="730" type="line"/>
      <point x="343" y="730" type="line"/>
      <point x="344" y="730" type="line"/>
      <point x="344" y="0" type="line"/>
      <point x="90" y="0" type="line"/>
    </contour>
  </outline>
</glyph>
<glyph name="Hbar.color3" format="2">
  <advance width="600"/>
  <unicode hex="0126"/>
  <outline>
    <contour>
      <point x="344" y="243" type="line"/>
      <point x="344" y="487" type="line"/>
      <point x="693" y="487" type="line"/>
      <point x="693" y="486" type="line"/>
      <point x="693" y="243" type="line"/>
    </contour>
  </outline>
</glyph>
<glyph name="hbar.color1" format="2">
  <advance width="600"/>
  <unicode hex="0127"/>
  <outline>
    <contour>
      <point x="35" y="794" type="line"/>
      <point x="248" y="794" type="line"/>
      <point x="249" y="533" type="line"/>
      <point x="249" y="0" type="line"/>
      <point x="35" y="0" type="line"/>
    </contour>
  </outline>
</glyph>
<glyph name="hbar.color2" format="2">
  <advance width="600"/>
  <unicode hex="0127"/>
  <outline>
    <contour>
      <point x="665" y="530" type="line"/>
      <point x="772" y="327" type="line"/>
      <point x="772" y="326" type="line"/>
      <point x="249" y="326" type="line"/>
      <point x="249" y="530" type="line"/>
    </contour>
  </outline>
</glyph>
<glyph name="hbar" format="2">
  <advance width="807"/>
  <unicode hex="0127"/>
  <anchor x="291" y="653" name="_stroke"/>
  <anchor x="291" y="653" name="stroke"/>
  <anchor x="508" y="530" name="top"/>
  <outline>
    <contour>
      <point x="588" y="561" type="line"/>
      <point x="-6" y="561" type="line"/>
      <point x="-6" y="745" type="line"/>
      <point x="588" y="745" type="line"/>
      <point x="588" y="744" type="line"/>
    </contour>
    <contour>
      <point x="35" y="794" type="line"/>
      <point x="248" y="794" type="line"/>
      <point x="249" y="533" type="line"/>
      <point x="249" y="0" type="line"/>
      <point x="35" y="0" type="line"/>
    </contour>
    <contour>
      <point x="665" y="530" type="line"/>
      <point x="772" y="327" type="line"/>
      <point x="772" y="326" type="line"/>
      <point x="249" y="326" type="line"/>
      <point x="249" y="530" type="line"/>
    </contour>
    <contour>
      <point x="772" y="41" type="line"/>
      <point x="559" y="-6" type="line"/>
      <point x="558" y="-6" type="line"/>
      <point x="558" y="326" type="line"/>
      <point x="772" y="326" type="line"/>
    </contour>
  </outline>
</glyph>
<glyph name="itilde.color3" format="2">
  <advance width="600"/>
  <unicode hex="0129"/>
  <outline>
    <contour>
      <point x="18" y="722" type="line"/>
      <point x="18" y="723" type="line"/>
      <point x="106" y="762" type="line"/>
      <point x="107" y="762" type="line"/>
      <point x="316" y="640" type="line"/>
      <point x="316" y="639" type="line"/>
      <point x="228" y="600" type="line"/>
      <point x="227" y="600" type="line"/>
    </contour>
  </outline>
</glyph>
<glyph name="Imacron.color3" format="2">
  <advance width="600"/>
  <unicode hex="012A"/>
  <outline>
    <contour>
      <point x="500" y="244" type="line"/>
      <point x="672" y="244" type="line"/>
      <point x="672" y="0" type="line"/>
      <point x="298" y="0" type="line"/>
    </contour>
  </outline>
</glyph>
<glyph name="ibreve.color2" format="2">
  <advance width="600"/>
  <unicode hex="012D"/>
  <outline>
    <contour>
      <point x="216" y="700" type="line"/>
      <point x="263" y="780" type="line"/>
      <point x="389" y="780" type="line"/>
      <point x="389" y="779" type="line"/>
      <point x="342" y="700" type="line"/>
    </contour>
  </outline>
</glyph>
<glyph name="iogonek.color1" format="2">
  <advance width="600"/>
  <unicode hex="012F"/>
  <outline>
    <contour>
      <point x="237" y="640" type="line"/>
      <point x="61" y="640" type="line"/>
      <point x="61" y="772" type="line"/>
      <point x="237" y="772" type="line"/>
    </contour>
  </outline>
</glyph>
<glyph name="jcircumflex.color2" format="2">
  <advance width="600"/>
  <unicode hex="0135"/>
  <outline>
    <contour>
      <point x="359" y="592" type="line"/>
      <point x="202" y="592" type="line"/>
      <point x="98" y="739" type="line"/>
      <point x="180" y="770" type="line"/>
      <point x="221" y="770" type="line"/>
    </contour>
  </outline>
</glyph>
<glyph name="Kcommaaccent.color4" format="2">
  <advance width="600"/>
  <unicode hex="0136"/>
  <outline>
    <contour>
      <point x="501" y="-158" type="line"/>
      <point x="370" y="-260" type="line"/>
      <point x="369" y="-260" type="line"/>
      <point x="369" y="-50" type="line"/>
      <point x="501" y="-50" type="line"/>
    </contour>
  </outline>
</glyph>
<glyph name="Kcommaaccent" format="2">
  <advance width="951"/>
  <unicode hex="0136"/>
  <anchor x="435" y="0" name="bottom"/>
  <outline>
    <contour>
      <point x="35" y="730" type="line"/>
      <point x="289" y="730" type="line"/>
      <point x="289" y="0" type="line"/>
      <point x="35" y="0" type="line"/>
    </contour>
    <contour>
      <point x="951" y="0" type="line"/>
      <point x="640" y="0" type="line"/>
      <point x="464" y="240" type="line"/>
      <point x="678" y="363" type="line"/>
    </contour>
    <contour>
      <point x="842" y="420" type="line"/>
      <point x="589" y="223" type="line"/>
      <point x="588" y="223" type="line"/>
      <point x="588" y="730" type="line"/>
      <point x="842" y="730" type="line"/>
    </contour>
    <contour>
      <point x="289" y="223" type="line"/>
      <point x="289" y="467" type="line"/>
      <point x="588" y="467" type="line"/>
      <point x="588" y="223" type="line"/>
    </contour>
    <contour>
      <point x="501" y="-158" type="line"/>
      <point x="370" y="-260" type="line"/>
      <point x="369" y="-260" type="line"/>
      <point x="369" y="-50" type="line"/>
      <point x="501" y="-50" type="line"/>
    </contour>
  </outline>
</glyph>
<glyph name="kgreenlandic.color2" format="2">
  <advance width="600"/>
  <unicode hex="0138"/>
  <outline>
    <contour>
      <point x="249" y="193" type="line"/>
      <point x="249" y="437" type="line"/>
      <point x="478" y="437" type="line"/>
      <point x="478" y="193" type="line"/>
    </contour>
  </outline>
</glyph>
<glyph name="Lacute" format="2">
  <advance width="793"/>
  <unicode hex="0139"/>
  <anchor x="445" y="0" name="bottom"/>
  <anchor x="173" y="730" name="top"/>
  <outline>
    <contour>
      <point x="35" y="730" type="line"/>
      <point x="288" y="730" type="line"/>
      <point x="289" y="730" type="line"/>
      <point x="289" y="240" type="line"/>
      <point x="35" y="240" type="line"/>
    </contour>
    <contour>
      <point x="237" y="-4" type="line"/>
      <point x="35" y="239" type="line"/>
      <point x="35" y="240" type="line"/>
      <point x="768" y="240" type="line"/>
      <point x="768" y="-4" type="line"/>
    </contour>
    <contour>
      <point x="89" y="760" type="line"/>
      <point x="124" y="900" type="line"/>
      <point x="330" y="900" type="line"/>
      <point x="330" y="899" type="line"/>
      <point x="215" y="760" type="line"/>
    </contour>
  </outline>
</glyph>
<glyph name="Lcaron.color1" format="2">
  <advance width="600"/>
  <unicode hex="013D"/>
  <outline>
    <contour>
      <point x="237" y="-4" type="line"/>
      <point x="35" y="239" type="line"/>
      <point x="35" y="240" type="line"/>
      <point x="768" y="240" type="line"/>
      <point x="768" y="-4" type="line"/>
    </contour>
  </outline>
</glyph>
<glyph name="Lcaron" format="2">
  <advance width="793"/>
  <unicode hex="013D"/>
  <anchor x="445" y="0" name="bottom"/>
  <anchor x="173" y="730" name="top"/>
  <outline>
    <contour>
      <point x="35" y="730" type="line"/>
      <point x="288" y="730" type="line"/>
      <point x="289" y="730" type="line"/>
      <point x="289" y="240" type="line"/>
      <point x="35" y="240" type="line"/>
    </contour>
    <contour>
      <point x="237" y="-4" type="line"/>
      <point x="35" y="239" type="line"/>
      <point x="35" y="240" type="line"/>
      <point x="768" y="240" type="line"/>
      <point x="768" y="-4" type="line"/>
    </contour>
    <contour>
      <point x="345" y="564" type="line"/>
      <point x="380" y="794" type="line"/>
      <point x="556" y="794" type="line"/>
      <point x="556" y="793" type="line"/>
      <point x="441" y="564" type="line"/>
    </contour>
  </outline>
</glyph>
<glyph name="ldot.color2" format="2">
  <advance width="600"/>
  <unicode hex="0140"/>
  <outline>
    <contour>
      <point x="550" y="324" type="line"/>
      <point x="318" y="324" type="line"/>
      <point x="318" y="528" type="line"/>
      <point x="550" y="528" type="line"/>
    </contour>
  </outline>
</glyph>
<glyph name="ldot" format="2">
  <advance width="486"/>
  <unicode hex="0140"/>
  <anchor x="259" y="0" name="bottom"/>
  <anchor x="149" y="794" name="top"/>
  <outline>
    <contour>
      <point x="35" y="794" type="line"/>
      <point x="249" y="794" type="line"/>
      <point x="249" y="0" type="line"/>
      <point x="248" y="0" type="line"/>
      <point x="35" y="107" type="line"/>
    </contour>
    <contour>
      <point x="461" y="0" type="line"/>
      <point x="249" y="0" type="line"/>
      <point x="249" y="204" type="line"/>
      <point x="461" y="204" type="line"/>
      <point x="461" y="203" type="line"/>
    </contour>
    <contour>
      <point x="550" y="324" type="line"/>
      <point x="318" y="324" type="line"/>
      <point x="318" y="528" type="line"/>
      <point x="550" y="528" type="line"/>
    </contour>
  </outline>
</glyph>
<glyph name="Lslash.color1" format="2">
  <advance width="600"/>
  <unicode hex="0141"/>
  <outline>
    <contour>
      <point x="140" y="730" type="line"/>
      <point x="393" y="730" type="line"/>
      <point x="394" y="730" type="line"/>
      <point x="394" y="240" type="line"/>
      <point x="140" y="240" type="line"/>
    </contour>
  </outline>
</glyph>
<glyph name="Lslash.color2" format="2">
  <advance width="600"/>
  <unicode hex="0141"/>
  <outline>
    <contour>
      <point x="342" y="-4" type="line"/>
      <point x="140" y="239" type="line"/>
      <point x="140" y="240" type="line"/>
      <point x="873" y="240" type="line"/>
      <point x="873" y="-4" type="line"/>
    </contour>
  </outline>
</glyph>
<glyph name="lslash.color2" format="2">
  <advance width="600"/>
  <unicode hex="0142"/>
  <outline>
    <contour>
      <point x="568" y="0" type="line"/>
      <point x="356" y="0" type="line"/>
      <point x="356" y="204" type="line"/>
      <point x="568" y="204" type="line"/>
      <point x="568" y="203" type="line"/>
    </contour>
  </outline>
</glyph>
<glyph name="Nacute.color3" format="2">
  <advance width="600"/>
  <unicode hex="0143"/>
  <outline>
    <contour>
      <point x="372" y="760" type="line"/>
      <point x="407" y="900" type="line"/>
      <point x="613" y="900" type="line"/>
      <point x="613" y="899" type="line"/>
      <point x="498" y="760" type="line"/>
    </contour>
  </outline>
</glyph>
<glyph name="ncaron.color4" format="2">
  <advance width="600"/>
  <unicode hex="0148"/>
  <outline>
    <contour>
      <point x="643" y="750" type="line"/>
      <point x="499" y="582" type="line"/>
      <point x="355" y="582" type="line"/>
      <point x="489" y="750" type="line"/>
    </contour>
  </outline>
</glyph>
<glyph name="obreve.color5" format="2">
  <advance width="600"/>
  <unicode hex="014F"/>
  <outline>
    <contour>
      <point x="480" y="720" type="line"/>
      <point x="517" y="780" type="line"/>
      <point x="653" y="780" type="line"/>
      <point x="653" y="779" type="line"/>
      <point x="616" y="720" type="line"/>
    </contour>
  </outline>
</glyph>
<glyph name="Ohungarumlaut.color5" format="2">
  <advance width="600"/>
  <unicode hex="0150"/>
  <outline>
    <contour>
      <point x="493" y="760" type="line"/>
      <point x="528" y="900" type="line"/>
      <point x="734" y="900" type="line"/>
      <point x="734" y="899" type="line"/>
      <point x="619" y="760" type="line"/>
    </contour>
  </outline>
</glyph>
<glyph name="Ohungarumlaut" format="2">
  <advance width="907"/>
  <unicode hex="0150"/>
  <anchor x="452" y="0" name="bottom"/>
  <anchor x="680" y="730" name="horn"/>
  <anchor x="476" y="730" name="top"/>
  <outline>
    <contour>
      <point x="25" y="523" type="line"/>
      <point x="278" y="730" type="line"/>
      <point x="279" y="730" type="line"/>
      <point x="279" y="244" type="line"/>
      <point x="25" y="244" type="line"/>
    </contour>
    <contour>
      <point x="680" y="730" type="line"/>
      <point x="882" y="487" type="line"/>
      <point x="882" y="486" type="line"/>
      <point x="279" y="486" type="line"/>
      <point x="279" y="730" type="line"/>
    </contour>
    <contour>
      <point x="882" y="197" type="line"/>
      <point x="629" y="0" type="line"/>
      <point x="628" y="0" type="line"/>
      <point x="628" y="486" type="line"/>
      <point x="882" y="486" type="line"/>
    </contour>
    <contour>
      <point x="227" y="0" type="line"/>
      <point x="25" y="243" type="line"/>
      <point x="25" y="244" type="line"/>
      <point x="628" y="244" type="line"/>
      <point x="628" y="0" type="line"/>
    </contour>
    <contour>
      <point x="263" y="760" type="line"/>
      <point x="298" y="900" type="line"/>
      <point x="504" y="900" type="line"/>
      <point x="504" y="899" type="line"/>
      <point x="389" y="760" type="line"/>
    </contour>
    <contour>
      <point x="493" y="760" type="line"/>
      <point x="528" y="900" type="line"/>
      <point x="734" y="900" type="line"/>
      <point x="734" y="899" type="line"/>
      <point x="619" y="760" type="line"/>
    </contour>
  </outline>
</glyph>
<glyph name="Rcaron.color5" format="2">
  <advance width="600"/>
  <unicode hex="0158"/>
  <outline>
    <contour>
      <point x="184" y="900" type="line"/>
      <point x="341" y="900" type="line"/>
      <point x="475" y="793" type="line"/>
      <point x="383" y="760" type="line"/>
      <point x="342" y="760" type="line"/>
    </contour>
  </outline>
</glyph>
<glyph name="rcaron.color2" format="2">
  <advance width="600"/>
  <unicode hex="0159"/>
  <outline>
    <contour>
      <point x="113" y="750" type="line"/>
      <point x="270" y="750" type="line"/>
      <point x="374" y="613" type="line"/>
      <point x="292" y="582" type="line"/>
      <point x="251" y="582" type="line"/>
    </contour>
  </outline>
</glyph>
<glyph name="tcaron.color4" format="2">
  <advance width="600"/>
  <unicode hex="0165"/>
  <outline>
    <contour>
      <point x="289" y="558" type="line"/>
      <point x="324" y="788" type="line"/>
      <point x="500" y="788" type="line"/>
      <point x="500" y="787" type="line"/>
      <point x="385" y="558" type="line"/>
    </contour>
  </outline>
</glyph>
<glyph name="Tbar" format="2">
  <advance width="886"/>
  <unicode hex="0166"/>
  <anchor x="433" y="365" name="_stroke"/>
  <anchor x="433" y="0" name="bottom"/>
  <anchor x="433" y="365" name="stroke"/>
  <anchor x="436" y="730" name="top"/>
  <outline>
    <contour>
      <point x="730" y="273" type="line"/>
      <point x="136" y="273" type="line"/>
      <point x="136" y="457" type="line"/>
      <point x="730" y="457" type="line"/>
      <point x="730" y="456" type="line"/>
    </contour>
    <contour>
      <point x="306" y="486" type="line"/>
      <point x="508" y="730" type="line"/>
      <point x="560" y="730" type="line"/>
      <point x="560" y="0" type="line"/>
      <point x="358" y="0" type="line"/>
      <point x="305" y="0" type="line"/>
    </contour>
    <contour>
      <point x="306" y="486" type="line"/>
      <point x="25" y="486" type="line"/>
      <point x="25" y="730" type="line"/>
      <point x="508" y="730" type="line"/>
    </contour>
    <contour>
      <point x="861" y="486" type="line"/>
      <point x="560" y="486" type="line"/>
      <point x="560" y="730" type="line"/>
      <point x="861" y="730" type="line"/>
    </contour>
  </outline>
</glyph>
<glyph name="Umacron.color0" format="2">
  <advance width="600"/>
  <unicode hex="016A"/>
  <outline>
    <contour>
      <point x="882" y="207" type="line"/>
      <point x="629" y="0" type="line"/>
      <point x="628" y="0" type="line"/>
      <point x="628" y="730" type="line"/>
      <point x="882" y="730" type="line"/>
    </contour>
  </outline>
</glyph>
<glyph name="Umacron" format="2">
  <advance width="907"/>
  <unicode hex="016A"/>
  <anchor x="442" y="0" name="bottom"/>
  <anchor x="811" y="730" name="horn"/>
  <anchor x="476" y="730" name="top"/>
  <outline>
    <contour>
      <point x="882" y="207" type="line"/>
      <point x="629" y="0" type="line"/>
      <point x="628" y="0" type="line"/>
      <point x="628" y="730" type="line"/>
      <point x="882" y="730" type="line"/>
    </contour>
    <contour>
      <point x="237" y="0" type="line"/>
      <point x="35" y="243" type="line"/>
      <point x="35" y="244" type="line"/>
      <point x="628" y="244" type="line"/>
      <point x="628" y="0" type="line"/>
    </contour>
    <contour>
      <point x="35" y="730" type="line"/>
      <point x="289" y="730" type="line"/>
      <point x="289" y="244" type="line"/>
      <point x="288" y="244" type="line"/>
      <point x="35" y="244" type="line"/>
    </contour>
    <contour>
      <point x="674" y="798" type="line"/>
      <point x="278" y="798" type="line"/>
      <point x="278" y="900" type="line"/>
      <point x="674" y="900" type="line"/>
    </contour>
  </outline>
</glyph>
<glyph name="uhungarumlaut.color4" format="2">
  <advance width="600"/>
  <unicode hex="0171"/>
  <outline>
    <contour>
      <point x="459" y="590" type="line"/>
      <point x="494" y="820" type="line"/>
      <point x="670" y="820" type="line"/>
      <point x="670" y="819" type="line"/>
      <point x="555" y="590" type="line"/>
    </contour>
  </outline>
</glyph>
<glyph name="Wcircumflex.color5" format="2">
  <advance width="600"/>
  <unicode hex="0174"/>
  <outline>
    <contour>
      <point x="447" y="760" type="line"/>
      <point x="447" y="761" type="line"/>
      <point x="601" y="900" type="line"/>
      <point x="755" y="900" type="line"/>
      <point x="601" y="760" type="line"/>
    </contour>
  </outline>
</glyph>
<glyph name="wcircumflex" format="2">
  <advance width="1190"/>
  <unicode hex="0175"/>
  <anchor x="603" y="750" name="top"/>
  <outline>
    <contour>
      <point x="1155" y="205" type="line"/>
      <point x="942" y="1" type="line"/>
      <point x="941" y="1" type="line"/>
      <point x="941" y="531" type="line"/>
      <point x="1155" y="531" type="line"/>
    </contour>
    <contour>
      <point x="498" y="531" type="line"/>
      <point x="691" y="531" type="line"/>
      <point x="692" y="531" type="line"/>
      <point x="692" y="205" type="line"/>
      <point x="498" y="205" type="line"/>
    </contour>
    <contour>
      <point x="35" y="490" type="line"/>
      <point x="248" y="537" type="line"/>
      <point x="249" y="537" type="line"/>
      <point x="249" y="205" type="line"/>
      <point x="35" y="205" type="line"/>
    </contour>
    <contour>
      <point x="142" y="1" type="line"/>
      <point x="35" y="204" type="line"/>
      <point x="35" y="205" type="line"/>
      <point x="498" y="205" type="line"/>
      <point x="498" y="1" type="line"/>
    </contour>
    <contour>
      <point x="565" y="1" type="line"/>
      <point x="498" y="204" type="line"/>
      <point x="498" y="205" type="line"/>
      <point x="941" y="205" type="line"/>
      <point x="941" y="1" type="line"/>
    </contour>
    <contour>
      <point x="801" y="592" type="line"/>
      <point x="644" y="592" type="line"/>
      <point x="540" y="739" type="line"/>
      <point x="622" y="770" type="line"/>
      <point x="663" y="770" type="line"/>
    </contour>
    <contour>
      <point x="375" y="592" type="line"/>
      <point x="519" y="770" type="line"/>
      <point x="663" y="770" type="line"/>
      <point x="529" y="592" type="line"/>
    </contour>
  </outline>
</glyph>
<glyph name="Ydieresis.color3" format="2">
  <advance width="600"/>
  <unicode hex="0178"/>
  <outline>
    <contour>
      <point x="393" y="788" type="line"/>
      <point x="247" y="788" type="line"/>
      <point x="247" y="900" type="line"/>
      <point x="393" y="900" type="line"/>
    </contour>
  </outline>
</glyph>
<glyph name="Ydieresis" format="2">
  <advance width="840"/>
  <unicode hex="0178"/>
  <anchor x="417" y="0" name="bottom"/>
  <anchor x="443" y="730" name="top"/>
  <outline>
    <contour>
      <point x="0" y="730" type="line"/>
      <point x="273" y="730" type="line"/>
      <point x="436" y="467" type="line"/>
      <point x="289" y="285" type="line"/>
      <point x="288" y="285" type="line"/>
    </contour>
    <contour>
      <point x="840" y="730" type="line"/>
      <point x="552" y="285" type="line"/>
      <point x="289" y="285" type="line"/>
      <point x="566" y="730" type="line"/>
    </contour>
    <contour>
      <point x="552" y="0" type="line"/>
      <point x="288" y="0" type="line"/>
      <point x="288" y="285" type="line"/>
      <point x="552" y="285" type="line"/>
    </contour>
    <contour>
      <point x="393" y="788" type="line"/>
      <point x="247" y="788" type="line"/>
      <point x="247" y="900" type="line"/>
      <point x="393" y="900" type="line"/>
    </contour>
    <contour>
      <point x="641" y="788" type="line"/>
      <point x="495" y="788" type="line"/>
      <point x="495" y="900" type="line"/>
      <point x="641" y="900" type="line"/>
    </contour>
  </outline>
</glyph>
<glyph name="Zacute" format="2">
  <advance width="825"/>
  <unicode hex="0179"/>
  <anchor x="386" y="730" name="top"/>
  <outline>
    <contour>
      <point x="35" y="730" type="line"/>
      <point x="644" y="730" type="line"/>
      <point x="618" y="486" type="line"/>
      <point x="35" y="486" type="line"/>
      <point x="35" y="487" type="line"/>
    </contour>
    <contour>
      <point x="244" y="119" type="line"/>
      <point x="41" y="244" type="line"/>
      <point x="41" y="245" type="line"/>
      <point x="644" y="730" type="line"/>
      <point x="784" y="535" type="line"/>
    </contour>
    <contour>
      <point x="790" y="0" type="line"/>
      <point x="41" y="0" type="line"/>
      <point x="41" y="244" type="line"/>
      <point x="790" y="244" type="line"/>
      <point x="790" y="243" type="line"/>
    </contour>
    <contour>
      <point x="302" y="760" type="line"/>
      <point x="337" y="900" type="line"/>
      <point x="543" y="900" type="line"/>
      <point x="543" y="899" type="line"/>
      <point x="428" y="760" type="line"/>
    </contour>
  </outline>
</glyph>
<glyph name="Zdotaccent.color3" format="2">
  <advance width="600"/>
  <unicode hex="017B"/>
  <outline>
    <contour>
      <point x="474" y="768" type="line"/>
      <point x="298" y="768" type="line"/>
      <point x="298" y="900" type="line"/>
      <point x="474" y="900" type="line"/>
    </contour>
  </outline>
</glyph>
<glyph name="Zcaron.color3" format="2">
  <advance width="600"/>
  <unicode hex="017D"/>
  <outline>
    <contour>
      <point x="154" y="900" type="line"/>
      <point x="311" y="900" type="line"/>
      <point x="445" y="793" type="line"/>
      <point x="353" y="760" type="line"/>
      <point x="312" y="760" type="line"/>
    </contour>
  </outline>
</glyph>
<glyph name="zcaron.color0" format="2">
  <advance width="600"/>
  <unicode hex="017E"/>
  <outline>
    <contour>
      <point x="143" y="530" type="line"/>
      <point x="673" y="530" type="line"/>
      <point x="647" y="351" type="line"/>
      <point x="36" y="351" type="line"/>
      <point x="36" y="352" type="line"/>
    </contour>
  </outline>
</glyph>
<glyph name="zcaron.color3" format="2">
  <advance width="600"/>
  <unicode hex="017E"/>
  <outline>
    <contour>
      <point x="188" y="750" type="line"/>
      <point x="345" y="750" type="line"/>
      <point x="449" y="613" type="line"/>
      <point x="367" y="582" type="line"/>
      <point x="326" y="582" type="line"/>
    </contour>
  </outline>
</glyph>
<glyph name="zcaron.color4" format="2">
  <advance width="600"/>
  <unicode hex="017E"/>
  <outline>
    <contour>
      <point x="614" y="750" type="line"/>
      <point x="470" y="582" type="line"/>
      <point x="326" y="582" type="line"/>
      <point x="460" y="750" type="line"/>
    </contour>
  </outline>
</glyph>
<glyph name="Uhorn.color1" format="2">
  <advance width="600"/>
  <unicode hex="01AF"/>
  <outline>
    <contour>
      <point x="237" y="0" type="line"/>
      <point x="35" y="243" type="line"/>
      <point x="35" y="244" type="line"/>
      <point x="628" y="244" type="line"/>
      <point x="628" y="0" type="line"/>
    </contour>
  </outline>
</glyph>
<glyph name="Uhorn.color4" format="2">
  <advance width="600"/>
  <unicode hex="01AF"/>
  <outline>
    <contour>
      <point x="1056" y="683" type="line"/>
      <point x="883" y="576" type="line"/>
      <point x="882" y="576" type="line"/>
      <point x="882" y="854" type="line"/>
      <point x="1056" y="854" type="line"/>
    </contour>
  </outline>
</glyph>
<glyph name="DZcaron.color5" format="2">
  <advance width="600"/>
  <unicode hex="01C4"/>
  <outline>
    <contour>
      <point x="1191" y="119" type="line"/>
      <point x="988" y="244" type="line"/>
      <point x="988" y="245" type="line"/>
      <point x="1591" y="730" type="line"/>
      <point x="1731" y="535" type="line"/>
    </contour>
  </outline>
</glyph>
<glyph name="Dzcaron.color5" format="2">
  <advance width="600"/>
  <unicode hex="01C5"/>
  <outline>
    <contour>
      <point x="1220" y="149" type="line"/>
      <point x="977" y="179" type="line"/>
      <point x="977" y="180" type="line"/>
      <point x="1620" y="530" type="line"/>
      <point x="1710" y="365" type="line"/>
    </contour>
  </outline>
</glyph>
<glyph name="Lj.color2" format="2">
  <advance width="600"/>
  <unicode hex="01C8"/>
  <outline>
    <contour>
      <point x="855" y="393" type="line"/>
      <point x="1048" y="500" type="line"/>
      <point x="1049" y="503" type="line"/>
      <point x="1049" y="-99" type="line"/>
      <point x="856" y="-206" type="line"/>
      <point x="855" y="-206" type="line"/>
    </contour>
  </outline>
</glyph>
<glyph name="Lj.color3" format="2">
  <advance width="600"/>
  <unicode hex="01C8"/>
  <outline>
    <contour>
      <point x="1049" y="576" type="line"/>
      <point x="856" y="469" type="line"/>
      <point x="855" y="469" type="line"/>
      <point x="855" y="682" type="line"/>
      <point x="1049" y="682" type="line"/>
    </contour>
  </outline>
</glyph>
<glyph name="lj.color4" format="2">
  <advance width="600"/>
  <unicode hex="01C9"/>
  <outline>
    <contour>
      <point x="548" y="-206" type="line"/>
      <point x="336" y="-206" type="line"/>
      <point x="336" y="-26" type="line"/>
      <point x="548" y="-26" type="line"/>
      <point x="548" y="-27" type="line"/>
    </contour>
  </outline>
</glyph>
<glyph name="gcaron.color5" format="2">
  <advance width="600"/>
  <unicode hex="01E7"/>
  <outline>
    <contour>
      <point x="223" y="750" type="line"/>
      <point x="380" y="750" type="line"/>
      <point x="484" y="613" type="line"/>
      <point x="402" y="582" type="line"/>
      <point x="361" y="582" type="line"/>
    </contour>
  </outline>
</glyph>
<glyph name="AEacute" format="2">
  <advance width="1391"/>
  <unicode hex="01FC"/>
  <anchor x="476" y="730" name="top"/>
  <outline>
    <contour>
      <point x="651" y="173" type="line"/>
      <point x="279" y="173" type="line"/>
      <point x="279" y="417" type="line"/>
      <point x="588" y="417" type="line"/>
    </contour>
    <contour>
      <point x="279" y="0" type="line"/>
      <point x="25" y="0" type="line"/>
      <point x="25" y="523" type="line"/>
      <point x="278" y="730" type="line"/>
      <point x="279" y="730" type="line"/>
    </contour>
    <contour>
      <point x="1366" y="730" type="line"/>
      <point x="1366" y="729" type="line"/>
      <point x="1164" y="486" type="line"/>
      <point x="842" y="486" type="line"/>
      <point x="640" y="730" type="line"/>
    </contour>
    <contour>
      <point x="1202" y="263" type="line"/>
      <point x="842" y="263" type="line"/>
      <point x="842" y="467" type="line"/>
      <point x="1202" y="467" type="line"/>
    </contour>
    <contour>
      <point x="1315" y="244" type="line"/>
      <point x="1315" y="0" type="line"/>
      <point x="790" y="0" type="line"/>
      <point x="588" y="243" type="line"/>
      <point x="588" y="244" type="line"/>
    </contour>
    <contour>
      <point x="842" y="244" type="line"/>
      <point x="588" y="244" type="line"/>
      <point x="588" y="486" type="line"/>
      <point x="842" y="486" type="line"/>
    </contour>
    <contour>
      <point x="640" y="730" type="line"/>
      <point x="842" y="487" type="line"/>
      <point x="842" y="486" type="line"/>
      <point x="279" y="486" type="line"/>
      <point x="279" y="730" type="line"/>
    </contour>
    <contour>
      <point x="392" y="760" type="line"/>
      <point x="427" y="900" type="line"/>
      <point x="633" y="900" type="line"/>
      <point x="633" y="899" type="line"/>
      <point x="518" y="760" type="line"/>
    </contour>
  </outline>
</glyph>
<glyph name="oslashacute.color4" format="2">
  <advance width="600"/>
  <unicode hex="01FF"/>
  <outline>
    <contour>
      <point x="178" y="0" type="line"/>
      <point x="71" y="203" type="line"/>
      <point x="71" y="204" type="line"/>
      <point x="644" y="204" type="line"/>
      <point x="644" y="0" type="line"/>
    </contour>
  </outline>
</glyph>
<glyph name="Edblgrave.color4" format="2">
  <advance width="600"/>
  <unicode hex="0204"/>
  <outline>
    <contour>
      <point x="644" y="760" type="line"/>
      <point x="518" y="760" type="line"/>
      <point x="403" y="899" type="line"/>
      <point x="403" y="900" type="line"/>
      <point x="609" y="900" type="line"/>
    </contour>
  </outline>
</glyph>
<glyph name="Einvertedbreve.color5" format="2">
  <advance width="600"/>
  <unicode hex="0206"/>
  <outline>
    <contour>
      <point x="494" y="820" type="line"/>
      <point x="653" y="820" type="line"/>
      <point x="707" y="761" type="line"/>
      <point x="707" y="760" type="line"/>
      <point x="551" y="760" type="line"/>
    </contour>
  </outline>
</glyph>
<glyph name="Einvertedbreve.color6" format="2">
  <advance width="600"/>
  <unicode hex="0206"/>
  <outline>
    <contour>
      <point x="579" y="900" type="line"/>
      <point x="653" y="820" type="line"/>
      <point x="260" y="820" type="line"/>
      <point x="334" y="900" type="line"/>
    </contour>
  </outline>
</glyph>
<glyph name="einvertedbreve.color5" format="2">
  <advance width="600"/>
  <unicode hex="0207"/>
  <outline>
    <contour>
      <point x="470" y="698" type="line"/>
      <point x="586" y="698" type="line"/>
      <point x="633" y="619" type="line"/>
      <point x="633" y="618" type="line"/>
      <point x="517" y="618" type="line"/>
    </contour>
  </outline>
</glyph>
<glyph name="Idblgrave.color5" format="2">
  <advance width="600"/>
  <unicode hex="0208"/>
  <outline>
    <contour>
      <point x="559" y="760" type="line"/>
      <point x="433" y="760" type="line"/>
      <point x="318" y="899" type="line"/>
      <point x="318" y="900" type="line"/>
      <point x="524" y="900" type="line"/>
    </contour>
  </outline>
</glyph>
<glyph name="Iinvertedbreve.color5" format="2">
  <advance width="600"/>
  <unicode hex="020A"/>
  <outline>
    <contour>
      <point x="334" y="820" type="line"/>
      <point x="277" y="760" type="line"/>
      <point x="121" y="760" type="line"/>
      <point x="121" y="762" type="line"/>
      <point x="175" y="820" type="line"/>
    </contour>
  </outline>
</glyph>
<glyph name="iinvertedbreve.color2" format="2">
  <advance width="600"/>
  <unicode hex="020B"/>
  <outline>
    <contour>
      <point x="216" y="678" type="line"/>
      <point x="342" y="678" type="line"/>
      <point x="389" y="599" type="line"/>
      <point x="389" y="598" type="line"/>
      <point x="263" y="598" type="line"/>
    </contour>
  </outline>
</glyph>
<glyph name="odblgrave.color4" format="2">
  <advance width="600"/>
  <unicode hex="020D"/>
  <outline>
    <contour>
      <point x="610" y="590" type="line"/>
      <point x="514" y="590" type="line"/>
      <point x="399" y="819" type="line"/>
      <point x="399" y="820" type="line"/>
      <point x="575" y="820" type="line"/>
    </contour>
  </outline>
</glyph>
<glyph name="oinvertedbreve.color4" format="2">
  <advance width="600"/>
  <unicode hex="020F"/>
  <outline>
    <contour>
      <point x="470" y="698" type="line"/>
      <point x="586" y="698" type="line"/>
      <point x="633" y="619" type="line"/>
      <point x="633" y="618" type="line"/>
      <point x="517" y="618" type="line"/>
    </contour>
  </outline>
</glyph>
<glyph name="Rdblgrave.color6" format="2">
  <advance width="600"/>
  <unicode hex="0210"/>
  <outline>
    <contour>
      <point x="374" y="760" type="line"/>
      <point x="248" y="760" type="line"/>
      <point x="133" y="899" type="line"/>
      <point x="133" y="900" type="line"/>
      <point x="339" y="900" type="line"/>
    </contour>
  </outline>
</glyph>
<glyph name="rdblgrave.color2" format="2">
  <advance width="600"/>
  <unicode hex="0211"/>
  <outline>
    <contour>
      <point x="510" y="590" type="line"/>
      <point x="414" y="590" type="line"/>
      <point x="299" y="819" type="line"/>
      <point x="299" y="820" type="line"/>
      <point x="475" y="820" type="line"/>
    </contour>
  </outline>
</glyph>
<glyph name="rdblgrave.color3" format="2">
  <advance width="600"/>
  <unicode hex="0211"/>
  <outline>
    <contour>
      <point x="310" y="590" type="line"/>
      <point x="214" y="590" type="line"/>
      <point x="99" y="819" type="line"/>
      <point x="99" y="820" type="line"/>
      <point x="275" y="820" type="line"/>
    </contour>
  </outline>
</glyph>
<glyph name="Rinvertedbreve.color7" format="2">
  <advance width="600"/>
  <unicode hex="0212"/>
  <outline>
    <contour>
      <point x="539" y="900" type="line"/>
      <point x="613" y="820" type="line"/>
      <point x="220" y="820" type="line"/>
      <point x="294" y="900" type="line"/>
    </contour>
  </outline>
</glyph>
<glyph name="uinvertedbreve" format="2">
  <advance width="807"/>
  <unicode hex="0217"/>
  <anchor x="422" y="0" name="bottom"/>
  <anchor x="772" y="530" name="horn"/>
  <anchor x="422" y="530" name="top"/>
  <outline>
    <contour>
      <point x="772" y="0" type="line"/>
      <point x="559" y="0" type="line"/>
      <point x="558" y="0" type="line"/>
      <point x="558" y="530" type="line"/>
      <point x="772" y="530" type="line"/>
    </contour>
    <contour>
      <point x="142" y="0" type="line"/>
      <point x="35" y="203" type="line"/>
      <point x="35" y="204" type="line"/>
      <point x="558" y="204" type="line"/>
      <point x="558" y="0" type="line"/>
    </contour>
    <contour>
      <point x="35" y="489" type="line"/>
      <point x="248" y="536" type="line"/>
      <point x="249" y="536" type="line"/>
      <point x="249" y="204" type="line"/>
      <point x="35" y="204" type="line"/>
    </contour>
    <contour>
      <point x="450" y="698" type="line"/>
      <point x="566" y="698" type="line"/>
      <point x="613" y="619" type="line"/>
      <point x="613" y="618" type="line"/>
      <point x="497" y="618" type="line"/>
    </contour>
    <contour>
      <point x="365" y="698" type="line"/>
      <point x="318" y="618" type="line"/>
      <point x="192" y="618" type="line"/>
      <point x="192" y="620" type="line"/>
      <point x="239" y="698" type="line"/>
    </contour>
    <contour>
      <point x="505" y="800" type="line"/>
      <point x="566" y="698" type="line"/>
      <point x="239" y="698" type="line"/>
      <point x="300" y="800" type="line"/>
    </contour>
  </outline>
</glyph>
<glyph name="Scommaaccent.color3" format="2">
  <advance width="600"/>
  <unicode hex="0218"/>
  <outline>
    <contour>
      <point x="227" y="262" type="line"/>
      <point x="25" y="465" type="line"/>
      <point x="25" y="466" type="line"/>
      <point x="618" y="466" type="line"/>
      <point x="618" y="263" type="line"/>
      <point x="618" y="262" type="line"/>
    </contour>
  </outline>
</glyph>
<glyph name="scommaaccent.color3" format="2">
  <advance width="600"/>
  <unicode hex="0219"/>
  <outline>
    <contour>
      <point x="408" y="-158" type="line"/>
      <point x="277" y="-260" type="line"/>
      <point x="276" y="-260" type="line"/>
      <point x="276" y="-50" type="line"/>
      <point x="408" y="-50" type="line"/>
    </contour>
  </outline>
</glyph>
<glyph name="Odieresismacron.color4" format="2">
  <advance width="600"/>
  <unicode hex="022A"/>
  <outline>
    <contour>
      <point x="426" y="788" type="line"/>
      <point x="280" y="788" type="line"/>
      <point x="280" y="900" type="line"/>
      <point x="426" y="900" type="line"/>
    </contour>
  </outline>
</glyph>
<glyph name="otildemacron.color5" format="2">
  <advance width="600"/>
  <unicode hex="022D"/>
  <outline>
    <contour>
      <point x="628" y="737" type="line"/>
      <point x="628" y="618" type="line"/>
      <point x="529" y="628" type="line"/>
      <point x="529" y="737" type="line"/>
    </contour>
  </outline>
</glyph>
<glyph name="odotaccentmacron.color5" format="2">
  <advance width="600"/>
  <unicode hex="0231"/>
  <outline>
    <contour>
      <point x="658" y="593" type="line"/>
      <point x="232" y="593" type="line"/>
      <point x="232" y="705" type="line"/>
      <point x="658" y="705" type="line"/>
    </contour>
  </outline>
</glyph>
<glyph name="Ymacron.color0" format="2">
  <advance width="600"/>
  <unicode hex="0232"/>
  <outline>
    <contour>
      <point x="0" y="730" type="line"/>
      <point x="273" y="730" type="line"/>
      <point x="436" y="467" type="line"/>
      <point x="289" y="285" type="line"/>
      <point x="288" y="285" type="line"/>
    </contour>
  </outline>
</glyph>
<glyph name="Ymacron.color3" format="2">
  <advance width="600"/>
  <unicode hex="0232"/>
  <outline>
    <contour>
      <point x="641" y="798" type="line"/>
      <point x="245" y="798" type="line"/>
      <point x="245" y="900" type="line"/>
      <point x="641" y="900" type="line"/>
    </contour>
  </outline>
</glyph>
<glyph name="ogonek.color1" format="2">
  <advance width="600"/>
  <unicode hex="02DB"/>
  <outline>
    <contour>
      <point x="132" y="-86" type="line"/>
      <point x="132" y="-85" type="line"/>
      <point x="209" y="0" type="line"/>
      <point x="334" y="0" type="line"/>
      <point x="334" y="-1" type="line"/>
      <point x="260" y="-86" type="line"/>
    </contour>
  </outline>
</glyph>
<glyph name="tilde.color2" format="2">
  <advance width="600"/>
  <unicode hex="02DC"/>
  <outline>
    <contour>
      <point x="89" y="722" type="line"/>
      <point x="89" y="723" type="line"/>
      <point x="218" y="762" type="line"/>
      <point x="219" y="762" type="line"/>
      <point x="487" y="630" type="line"/>
      <point x="487" y="629" type="line"/>
      <point x="359" y="590" type="line"/>
      <point x="358" y="590" type="line"/>
    </contour>
  </outline>
</glyph>
<glyph name="hungarumlaut.color1" format="2">
  <advance width="600"/>
  <unicode hex="02DD"/>
  <outline>
    <contour>
      <point x="346" y="590" type="line"/>
      <point x="381" y="820" type="line"/>
      <point x="557" y="820" type="line"/>
      <point x="557" y="819" type="line"/>
      <point x="442" y="590" type="line"/>
    </contour>
  </outline>
</glyph>
<glyph name="brevecomb.color0" format="2">
  <unicode hex="0306"/>
  <outline>
    <contour>
      <point x="242" y="720" type="line"/>
      <point x="96" y="720" type="line"/>
      <point x="59" y="778" type="line"/>
      <point x="59" y="780" type="line"/>
      <point x="205" y="780" type="line"/>
    </contour>
  </outline>
</glyph>
<glyph name="brevecomb.color1" format="2">
  <unicode hex="0306"/>
  <outline>
    <contour>
      <point x="357" y="720" type="line"/>
      <point x="394" y="780" type="line"/>
      <point x="530" y="780" type="line"/>
      <point x="530" y="779" type="line"/>
      <point x="493" y="720" type="line"/>
    </contour>
  </outline>
</glyph>
<glyph name="hungarumlautcomb" format="2">
  <unicode hex="030B"/>
  <anchor x="309" y="530" name="_top"/>
  <outline>
    <contour>
      <point x="146" y="590" type="line"/>
      <point x="181" y="820" type="line"/>
      <point x="357" y="820" type="line"/>
      <point x="357" y="819" type="line"/>
      <point x="242" y="590" type="line"/>
    </contour>
    <contour>
      <point x="346" y="590" type="line"/>
      <point x="381" y="820" type="line"/>
      <point x="557" y="820" type="line"/>
      <point x="557" y="819" type="line"/>
      <point x="442" y="590" type="line"/>
    </contour>
  </outline>
</glyph>
<glyph name="brevebelowcomb.color0" format="2">
  <unicode hex="032E"/>
  <outline>
    <contour>
      <point x="262" y="-80" type="line"/>
      <point x="116" y="-80" type="line"/>
      <point x="79" y="-22" type="line"/>
      <point x="79" y="-20" type="line"/>
      <point x="225" y="-20" type="line"/>
    </contour>
  </outline>
</glyph>
<glyph name="wacute.color1" format="2">
  <advance width="600"/>
  <unicode hex="1E83"/>
  <outline>
    <contour>
      <point x="498" y="531" type="line"/>
      <point x="691" y="531" type="line"/>
      <point x="692" y="531" type="line"/>
      <point x="692" y="205" type="line"/>
      <point x="498" y="205" type="line"/>
    </contour>
    <contour>
      <point x="35" y="490" type="line"/>
      <point x="248" y="537" type="line"/>
      <point x="249" y="537" type="line"/>
      <point x="249" y="205" type="line"/>
      <point x="35" y="205" type="line"/>
    </contour>
  </outline>
</glyph>
<glyph name="ahookabove.color4" format="2">
  <advance width="600"/>
  <unicode hex="1EA3"/>
  <outline>
    <contour>
      <point x="640" y="736" type="line"/>
      <point x="312" y="736" type="line"/>
      <point x="312" y="850" type="line"/>
      <point x="553" y="850" type="line"/>
      <point x="640" y="737" type="line"/>
    </contour>
  </outline>
</glyph>
<glyph name="ahookabove.color5" format="2">
  <advance width="600"/>
  <unicode hex="1EA3"/>
  <outline>
    <contour>
      <point x="519" y="586" type="line"/>
      <point x="402" y="586" type="line"/>
      <point x="401" y="586" type="line"/>
      <point x="553" y="850" type="line"/>
      <point x="640" y="737" type="line"/>
      <point x="640" y="736" type="line"/>
    </contour>
  </outline>
</glyph>
<glyph name="ahookabove" format="2">
  <advance width="827"/>
  <unicode hex="1EA3"/>
  <anchor x="441" y="0" name="bottom"/>
  <anchor x="452" y="530" name="top"/>
  <outline>
    <contour>
      <point x="35" y="423" type="line"/>
      <point x="248" y="530" type="line"/>
      <point x="249" y="530" type="line"/>
      <point x="249" y="204" type="line"/>
      <point x="35" y="204" type="line"/>
    </contour>
    <contour>
      <point x="685" y="530" type="line"/>
      <point x="792" y="327" type="line"/>
      <point x="792" y="326" type="line"/>
      <point x="249" y="326" type="line"/>
      <point x="249" y="530" type="line"/>
    </contour>
    <contour>
      <point x="792" y="0" type="line"/>
      <point x="579" y="0" type="line"/>
      <point x="578" y="0" type="line"/>
      <point x="578" y="326" type="line"/>
      <point x="792" y="326" type="line"/>
    </contour>
    <contour>
      <point x="142" y="0" type="line"/>
      <point x="35" y="203" type="line"/>
      <point x="35" y="204" type="line"/>
      <point x="578" y="204" type="line"/>
      <point x="578" y="0" type="line"/>
    </contour>
    <contour>
      <point x="640" y="736" type="line"/>
      <point x="312" y="736" type="line"/>
      <point x="312" y="850" type="line"/>
      <point x="553" y="850" type="line"/>
      <point x="640" y="737" type="line"/>
    </contour>
    <contour>
      <point x="519" y="586" type="line"/>
      <point x="402" y="586" type="line"/>
      <point x="401" y="586" type="line"/>
      <point x="553" y="850" type="line"/>
      <point x="640" y="737" type="line"/>
      <point x="640" y="736" type="line"/>
    </contour>
  </outline>
</glyph>
<glyph name="Acircumflexgrave.color4" format="2">
  <advance width="600"/>
  <unicode hex="1EA6"/>
  <outline>
    <contour>
      <point x="676" y="755" type="line"/>
      <point x="519" y="755" type="line"/>
      <point x="415" y="852" type="line"/>
      <point x="497" y="883" type="line"/>
      <point x="548" y="883" type="line"/>
      <point x="676" y="756" type="line"/>
    </contour>
  </outline>
</glyph>
<glyph name="Acircumflextilde.color5" format="2">
  <advance width="600"/>
  <unicode hex="1EAA"/>
  <outline>
    <contour>
      <point x="705" y="980" type="line"/>
      <point x="705" y="906" type="line"/>
      <point x="585" y="887" type="line"/>
      <point x="585" y="980" type="line"/>
    </contour>
  </outline>
</glyph>
<glyph name="Acircumflextilde.color6" format="2">
  <advance width="600"/>
  <unicode hex="1EAA"/>
  <outline>
    <contour>
      <point x="276" y="935" type="line"/>
      <point x="386" y="984" type="line"/>
      <point x="387" y="984" type="line"/>
      <point x="705" y="927" type="line"/>
      <point x="705" y="906" type="line"/>
      <point x="613" y="861" type="line"/>
      <point x="612" y="861" type="line"/>
      <point x="276" y="924" type="line"/>
    </contour>
  </outline>
</glyph>
<glyph name="Acircumflextilde.color7" format="2">
  <advance width="600"/>
  <unicode hex="1EAA"/>
  <outline>
    <contour>
      <point x="722" y="755" type="line"/>
      <point x="548" y="755" type="line"/>
      <point x="444" y="808" type="line"/>
      <point x="558" y="853" type="line"/>
      <point x="722" y="756" type="line"/>
    </contour>
  </outline>
</glyph>
<glyph name="Acircumflextilde.color8" format="2">
  <advance width="600"/>
  <unicode hex="1EAA"/>
  <outline>
    <contour>
      <point x="230" y="755" type="line"/>
      <point x="230" y="756" type="line"/>
      <point x="394" y="853" type="line"/>
      <point x="558" y="853" type="line"/>
      <point x="394" y="755" type="line"/>
    </contour>
  </outline>
</glyph>
<glyph name="acircumflextilde.color7" format="2">
  <advance width="600"/>
  <unicode hex="1EAB"/>
  <outline>
    <contour>
      <point x="650" y="891" type="line"/>
      <point x="650" y="790" type="line"/>
      <point x="531" y="790" type="line"/>
      <point x="531" y="891" type="line"/>
    </contour>
  </outline>
</glyph>
<glyph name="acircumflextilde.color8" format="2">
  <advance width="600"/>
  <unicode hex="1EAB"/>
  <outline>
    <contour>
      <point x="252" y="861" type="line"/>
      <point x="252" y="862" type="line"/>
      <point x="362" y="902" type="line"/>
      <point x="363" y="902" type="line"/>
      <point x="650" y="791" type="line"/>
      <point x="650" y="790" type="line"/>
      <point x="540" y="740" type="line"/>
      <point x="539" y="740" type="line"/>
    </contour>
  </outline>
</glyph>
<glyph name="acircumflextilde" format="2">
  <advance width="827"/>
  <unicode hex="1EAB"/>
  <anchor x="441" y="0" name="bottom"/>
  <anchor x="452" y="530" name="top"/>
  <outline>
    <contour>
      <point x="35" y="423" type="line"/>
      <point x="248" y="530" type="line"/>
      <point x="249" y="530" type="line"/>
      <point x="249" y="204" type="line"/>
      <point x="35" y="204" type="line"/>
    </contour>
    <contour>
      <point x="685" y="530" type="line"/>
      <point x="792" y="327" type="line"/>
      <point x="792" y="326" type="line"/>
      <point x="249" y="326" type="line"/>
      <point x="249" y="530" type="line"/>
    </contour>
    <contour>
      <point x="792" y="0" type="line"/>
      <point x="579" y="0" type="line"/>
      <point x="578" y="0" type="line"/>
      <point x="578" y="326" type="line"/>
      <point x="792" y="326" type="line"/>
    </contour>
    <contour>
      <point x="142" y="0" type="line"/>
      <point x="35" y="203" type="line"/>
      <point x="35" y="204" type="line"/>
      <point x="578" y="204" type="line"/>
      <point x="578" y="0" type="line"/>
    </contour>
    <contour>
      <point x="689" y="578" type="line"/>
      <point x="505" y="578" type="line"/>
      <point x="381" y="675" type="line"/>
      <point x="483" y="706" type="line"/>
      <point x="534" y="706" type="line"/>
      <point x="689" y="579" type="line"/>
    </contour>
    <contour>
      <point x="186" y="578" type="line"/>
      <point x="186" y="579" type="line"/>
      <point x="350" y="706" type="line"/>
      <point x="534" y="706" type="line"/>
      <point x="360" y="578" type="line"/>
    </contour>
    <contour>
      <point x="252" y="751" type="line"/>
      <point x="252" y="862" type="line"/>
      <point x="372" y="843" type="line"/>
      <point x="372" y="751" type="line"/>
    </contour>
    <contour>
      <point x="650" y="891" type="line"/>
      <point x="650" y="790" type="line"/>
      <point x="531" y="790" type="line"/>
      <point x="531" y="891" type="line"/>
    </contour>
    <contour>
      <point x="252" y="861" type="line"/>
      <point x="252" y="862" type="line"/>
      <point x="362" y="902" type="line"/>
      <point x="363" y="902" type="line"/>
      <point x="650" y="791" type="line"/>
      <point x="650" y="790" type="line"/>
      <point x="540" y="740" type="line"/>
      <point x="539" y="740" type="line"/>
    </contour>
  </outline>
</glyph>
<glyph name="abreveacute.color5" format="2">
  <advance width="600"/>
  <unicode hex="1EAF"/>
  <outline>
    <contour>
      <point x="520" y="685" type="line"/>
      <point x="567" y="756" type="line"/>
      <point x="693" y="756" type="line"/>
      <point x="693" y="755" type="line"/>
      <point x="646" y="685" type="line"/>
    </contour>
  </outline>
</glyph>
<glyph name="abreveacute.color6" format="2">
  <advance width="600"/>
  <unicode hex="1EAF"/>
  <outline>
    <contour>
      <point x="585" y="578" type="line"/>
      <point x="300" y="578" type="line"/>
      <point x="239" y="685" type="line"/>
      <point x="646" y="685" type="line"/>
    </contour>
  </outline>
</glyph>
<glyph name="abreveacute" format="2">
  <advance width="827"/>
  <unicode hex="1EAF"/>
  <anchor x="441" y="0" name="bottom"/>
  <anchor x="452" y="530" name="top"/>
  <outline>
    <contour>
      <point x="35" y="423" type="line"/>
      <point x="248" y="530" type="line"/>
      <point x="249" y="530" type="line"/>
      <point x="249" y="204" type="line"/>
      <point x="35" y="204" type="line"/>
    </contour>
    <contour>
      <point x="685" y="530" type="line"/>
      <point x="792" y="327" type="line"/>
      <point x="792" y="326" type="line"/>
      <point x="249" y="326" type="line"/>
      <point x="249" y="530" type="line"/>
    </contour>
    <contour>
      <point x="792" y="0" type="line"/>
      <point x="579" y="0" type="line"/>
      <point x="578" y="0" type="line"/>
      <point x="578" y="326" type="line"/>
      <point x="792" y="326" type="line"/>
    </contour>
    <contour>
      <point x="142" y="0" type="line"/>
      <point x="35" y="203" type="line"/>
      <point x="35" y="204" type="line"/>
      <point x="578" y="204" type="line"/>
      <point x="578" y="0" type="line"/>
    </contour>
    <contour>
      <point x="365" y="685" type="line"/>
      <point x="239" y="685" type="line"/>
      <point x="192" y="754" type="line"/>
      <point x="192" y="756" type="line"/>
      <point x="318" y="756" type="line"/>
    </contour>
    <contour>
      <point x="520" y="685" type="line"/>
      <point x="567" y="756" type="line"/>
      <point x="693" y="756" type="line"/>
      <point x="693" y="755" type="line"/>
      <point x="646" y="685" type="line"/>
    </contour>
    <contour>
      <point x="585" y="578" type="line"/>
      <point x="300" y="578" type="line"/>
      <point x="239" y="685" type="line"/>
      <point x="646" y="685" type="line"/>
    </contour>
    <contour>
      <point x="485" y="720" type="line"/>
      <point x="389" y="720" type="line"/>
      <point x="432" y="899" type="line"/>
      <point x="432" y="900" type="line"/>
      <point x="600" y="900" type="line"/>
    </contour>
  </outline>
</glyph>
<glyph name="abrevegrave.color6" format="2">
  <advance width="600"/>
  <unicode hex="1EB1"/>
  <outline>
    <contour>
      <point x="584" y="578" type="line"/>
      <point x="299" y="578" type="line"/>
      <point x="238" y="685" type="line"/>
      <point x="645" y="685" type="line"/>
    </contour>
  </outline>
</glyph>
<glyph name="abrevegrave.color7" format="2">
  <advance width="600"/>
  <unicode hex="1EB1"/>
  <outline>
    <contour>
      <point x="499" y="720" type="line"/>
      <point x="403" y="720" type="line"/>
      <point x="288" y="899" type="line"/>
      <point x="288" y="900" type="line"/>
      <point x="456" y="900" type="line"/>
    </contour>
  </outline>
</glyph>
<glyph name="Abrevehookabove.color6" format="2">
  <advance width="600"/>
  <unicode hex="1EB2"/>
  <outline>
    <contour>
      <point x="609" y="760" type="line"/>
      <point x="364" y="760" type="line"/>
      <point x="273" y="852" type="line"/>
      <point x="700" y="852" type="line"/>
    </contour>
  </outline>
</glyph>
<glyph name="Abrevetilde.color7" format="2">
  <advance width="600"/>
  <unicode hex="1EB4"/>
  <outline>
    <contour>
      <point x="370" y="868" type="line"/>
      <point x="370" y="944" type="line"/>
      <point x="495" y="955" type="line"/>
      <point x="495" y="868" type="line"/>
    </contour>
  </outline>
</glyph>
<glyph name="Abrevetilde" format="2">
  <advance width="927"/>
  <unicode hex="1EB4"/>
  <anchor x="462" y="0" name="bottom"/>
  <anchor x="486" y="730" name="top"/>
  <outline>
    <contour>
      <point x="35" y="523" type="line"/>
      <point x="288" y="730" type="line"/>
      <point x="289" y="730" type="line"/>
      <point x="289" y="0" type="line"/>
      <point x="35" y="0" type="line"/>
    </contour>
    <contour>
      <point x="690" y="730" type="line"/>
      <point x="892" y="487" type="line"/>
      <point x="892" y="486" type="line"/>
      <point x="289" y="486" type="line"/>
      <point x="289" y="730" type="line"/>
    </contour>
    <contour>
      <point x="892" y="0" type="line"/>
      <point x="638" y="0" type="line"/>
      <point x="638" y="486" type="line"/>
      <point x="639" y="486" type="line"/>
      <point x="892" y="486" type="line"/>
    </contour>
    <contour>
      <point x="638" y="173" type="line"/>
      <point x="289" y="173" type="line"/>
      <point x="289" y="417" type="line"/>
      <point x="638" y="417" type="line"/>
      <point x="638" y="416" type="line"/>
    </contour>
    <contour>
      <point x="359" y="852" type="line"/>
      <point x="213" y="852" type="line"/>
      <point x="171" y="898" type="line"/>
      <point x="171" y="900" type="line"/>
      <point x="307" y="900" type="line"/>
    </contour>
    <contour>
      <point x="494" y="852" type="line"/>
      <point x="545" y="895" type="line"/>
      <point x="659" y="872" type="line"/>
      <point x="659" y="871" type="line"/>
      <point x="640" y="852" type="line"/>
    </contour>
    <contour>
      <point x="549" y="760" type="line"/>
      <point x="304" y="760" type="line"/>
      <point x="213" y="852" type="line"/>
      <point x="640" y="852" type="line"/>
    </contour>
    <contour>
      <point x="370" y="868" type="line"/>
      <point x="370" y="944" type="line"/>
      <point x="495" y="955" type="line"/>
      <point x="495" y="868" type="line"/>
    </contour>
    <contour>
      <point x="805" y="980" type="line"/>
      <point x="805" y="916" type="line"/>
      <point x="670" y="907" type="line"/>
      <point x="670" y="980" type="line"/>
    </contour>
    <contour>
      <point x="370" y="944" type="line"/>
      <point x="370" y="945" type="line"/>
      <point x="485" y="984" type="line"/>
      <point x="526" y="984" type="line"/>
      <point x="805" y="927" type="line"/>
      <point x="805" y="916" type="line"/>
      <point x="723" y="879" type="line"/>
      <point x="682" y="879" type="line"/>
    </contour>
  </outline>
</glyph>
<glyph name="Abrevedotbelow.color5" format="2">
  <advance width="600"/>
  <unicode hex="1EB6"/>
  <outline>
    <contour>
      <point x="439" y="860" type="line"/>
      <point x="260" y="860" type="line"/>
      <point x="226" y="898" type="line"/>
      <point x="226" y="900" type="line"/>
      <point x="402" y="900" type="line"/>
    </contour>
  </outline>
</glyph>
<glyph name="Etilde.color4" format="2">
  <advance width="600"/>
  <unicode hex="1EBC"/>
  <outline>
    <contour>
      <point x="218" y="772" type="line"/>
      <point x="218" y="853" type="line"/>
      <point x="358" y="864" type="line"/>
      <point x="358" y="772" type="line"/>
    </contour>
  </outline>
</glyph>
<glyph name="Ecircumflexgrave.color2" format="2">
  <advance width="600"/>
  <unicode hex="1EC0"/>
  <outline>
    <contour>
      <point x="698" y="263" type="line"/>
      <point x="289" y="263" type="line"/>
      <point x="289" y="467" type="line"/>
      <point x="698" y="467" type="line"/>
    </contour>
  </outline>
</glyph>
<glyph name="Ecircumflexgrave.color5" format="2">
  <advance width="600"/>
  <unicode hex="1EC0"/>
  <outline>
    <contour>
      <point x="220" y="755" type="line"/>
      <point x="220" y="756" type="line"/>
      <point x="354" y="883" type="line"/>
      <point x="518" y="883" type="line"/>
      <point x="374" y="755" type="line"/>
    </contour>
  </outline>
</glyph>
<glyph name="Ecircumflexhookabove.color4" format="2">
  <advance width="600"/>
  <unicode hex="1EC2"/>
  <outline>
    <contour>
      <point x="662" y="755" type="line"/>
      <point x="508" y="755" type="line"/>
      <point x="394" y="838" type="line"/>
      <point x="454" y="854" type="line"/>
      <point x="523" y="873" type="line"/>
      <point x="662" y="756" type="line"/>
    </contour>
  </outline>
</glyph>
<glyph name="Ecircumflexhookabove" format="2">
  <advance width="832"/>
  <unicode hex="1EC2"/>
  <anchor x="442" y="0" name="bottom"/>
  <anchor x="456" y="730" name="top"/>
  <outline>
    <contour>
      <point x="35" y="730" type="line"/>
      <point x="289" y="730" type="line"/>
      <point x="289" y="244" type="line"/>
      <point x="35" y="244" type="line"/>
    </contour>
    <contour>
      <point x="650" y="486" type="line"/>
      <point x="289" y="486" type="line"/>
      <point x="289" y="730" type="line"/>
      <point x="852" y="730" type="line"/>
      <point x="852" y="729" type="line"/>
    </contour>
    <contour>
      <point x="698" y="263" type="line"/>
      <point x="289" y="263" type="line"/>
      <point x="289" y="467" type="line"/>
      <point x="698" y="467" type="line"/>
    </contour>
    <contour>
      <point x="801" y="0" type="line"/>
      <point x="237" y="0" type="line"/>
      <point x="35" y="243" type="line"/>
      <point x="35" y="244" type="line"/>
      <point x="801" y="244" type="line"/>
    </contour>
    <contour>
      <point x="662" y="755" type="line"/>
      <point x="508" y="755" type="line"/>
      <point x="394" y="838" type="line"/>
      <point x="454" y="854" type="line"/>
      <point x="523" y="873" type="line"/>
      <point x="662" y="756" type="line"/>
    </contour>
    <contour>
      <point x="210" y="755" type="line"/>
      <point x="210" y="756" type="line"/>
      <point x="364" y="873" type="line"/>
      <point x="523" y="873" type="line"/>
      <point x="364" y="755" type="line"/>
    </contour>
    <contour>
      <point x="764" y="892" type="line"/>
      <point x="476" y="892" type="line"/>
      <point x="476" y="980" type="line"/>
      <point x="687" y="980" type="line"/>
      <point x="764" y="893" type="line"/>
    </contour>
    <contour>
      <point x="677" y="824" type="line"/>
      <point x="590" y="824" type="line"/>
      <point x="589" y="824" type="line"/>
      <point x="687" y="980" type="line"/>
      <point x="764" y="893" type="line"/>
      <point x="764" y="892" type="line"/>
    </contour>
  </outline>
</glyph>
<glyph name="ecircumflexdotbelow.color2" format="2">
  <advance width="600"/>
  <unicode hex="1EC7"/>
  <outline>
    <contour>
      <point x="152" y="0" type="line"/>
      <point x="45" y="199" type="line"/>
      <point x="45" y="200" type="line"/>
      <point x="812" y="200" type="line"/>
      <point x="812" y="199" type="line"/>
      <point x="705" y="0" type="line"/>
    </contour>
  </outline>
</glyph>
<glyph name="Ihookabove.color5" format="2">
  <advance width="600"/>
  <unicode hex="1EC8"/>
  <outline>
    <contour>
      <point x="549" y="838" type="line"/>
      <point x="181" y="838" type="line"/>
      <point x="181" y="940" type="line"/>
      <point x="442" y="940" type="line"/>
      <point x="549" y="839" type="line"/>
    </contour>
  </outline>
</glyph>
<glyph name="Ihookabove.color6" format="2">
  <advance width="600"/>
  <unicode hex="1EC8"/>
  <outline>
    <contour>
      <point x="408" y="760" type="line"/>
      <point x="291" y="760" type="line"/>
      <point x="290" y="760" type="line"/>
      <point x="442" y="940" type="line"/>
      <point x="549" y="839" type="line"/>
      <point x="549" y="838" type="line"/>
    </contour>
  </outline>
</glyph>
<glyph name="odotbelow.color4" format="2">
  <advance width="600"/>
  <unicode hex="1ECD"/>
  <outline>
    <contour>
      <point x="527" y="-200" type="line"/>
      <point x="323" y="-200" type="line"/>
      <point x="323" y="-38" type="line"/>
      <point x="527" y="-38" type="line"/>
    </contour>
  </outline>
</glyph>
<glyph name="ohookabove.color5" format="2">
  <advance width="600"/>
  <unicode hex="1ECF"/>
  <outline>
    <contour>
      <point x="509" y="586" type="line"/>
      <point x="392" y="586" type="line"/>
      <point x="391" y="586" type="line"/>
      <point x="543" y="850" type="line"/>
      <point x="630" y="737" type="line"/>
      <point x="630" y="736" type="line"/>
    </contour>
  </outline>
</glyph>
<glyph name="Ocircumflexacute.color4" format="2">
  <advance width="600"/>
  <unicode hex="1ED0"/>
  <outline>
    <contour>
      <point x="622" y="808" type="line"/>
      <point x="665" y="950" type="line"/>
      <point x="831" y="950" type="line"/>
      <point x="831" y="949" type="line"/>
      <point x="738" y="808" type="line"/>
    </contour>
  </outline>
</glyph>
<glyph name="Ocircumflexacute" format="2">
  <advance width="907"/>
  <unicode hex="1ED0"/>
  <anchor x="452" y="0" name="bottom"/>
  <anchor x="680" y="730" name="horn"/>
  <anchor x="476" y="730" name="top"/>
  <outline>
    <contour>
      <point x="25" y="523" type="line"/>
      <point x="278" y="730" type="line"/>
      <point x="279" y="730" type="line"/>
      <point x="279" y="244" type="line"/>
      <point x="25" y="244" type="line"/>
    </contour>
    <contour>
      <point x="680" y="730" type="line"/>
      <point x="882" y="487" type="line"/>
      <point x="882" y="486" type="line"/>
      <point x="279" y="486" type="line"/>
      <point x="279" y="730" type="line"/>
    </contour>
    <contour>
      <point x="882" y="197" type="line"/>
      <point x="629" y="0" type="line"/>
      <point x="628" y="0" type="line"/>
      <point x="628" y="486" type="line"/>
      <point x="882" y="486" type="line"/>
    </contour>
    <contour>
      <point x="227" y="0" type="line"/>
      <point x="25" y="243" type="line"/>
      <point x="25" y="244" type="line"/>
      <point x="628" y="244" type="line"/>
      <point x="628" y="0" type="line"/>
    </contour>
    <contour>
      <point x="622" y="808" type="line"/>
      <point x="665" y="950" type="line"/>
      <point x="831" y="950" type="line"/>
      <point x="831" y="949" type="line"/>
      <point x="738" y="808" type="line"/>
    </contour>
    <contour>
      <point x="666" y="755" type="line"/>
      <point x="509" y="755" type="line"/>
      <point x="405" y="852" type="line"/>
      <point x="487" y="883" type="line"/>
      <point x="538" y="883" type="line"/>
      <point x="666" y="756" type="line"/>
    </contour>
    <contour>
      <point x="240" y="755" type="line"/>
      <point x="240" y="756" type="line"/>
      <point x="374" y="883" type="line"/>
      <point x="538" y="883" type="line"/>
      <point x="394" y="755" type="line"/>
    </contour>
  </outline>
</glyph>
<glyph name="ocircumflexacute.color4" format="2">
  <advance width="600"/>
  <unicode hex="1ED1"/>
  <outline>
    <contour>
      <point x="361" y="740" type="line"/>
      <point x="416" y="900" type="line"/>
      <point x="582" y="900" type="line"/>
      <point x="582" y="899" type="line"/>
      <point x="457" y="740" type="line"/>
    </contour>
  </outline>
</glyph>
<glyph name="ocircumflexgrave.color3" format="2">
  <advance width="600"/>
  <unicode hex="1ED3"/>
  <outline>
    <contour>
      <point x="132" y="0" type="line"/>
      <point x="25" y="203" type="line"/>
      <point x="25" y="204" type="line"/>
      <point x="598" y="204" type="line"/>
      <point x="598" y="0" type="line"/>
    </contour>
  </outline>
</glyph>
<glyph name="Ocircumflexhookabove.color5" format="2">
  <advance width="600"/>
  <unicode hex="1ED4"/>
  <outline>
    <contour>
      <point x="230" y="755" type="line"/>
      <point x="230" y="756" type="line"/>
      <point x="384" y="873" type="line"/>
      <point x="543" y="873" type="line"/>
      <point x="384" y="755" type="line"/>
    </contour>
  </outline>
</glyph>
<glyph name="ocircumflexhookabove.color7" format="2">
  <advance width="600"/>
  <unicode hex="1ED5"/>
  <outline>
    <contour>
      <point x="487" y="736" type="line"/>
      <point x="371" y="736" type="line"/>
      <point x="371" y="737" type="line"/>
      <point x="513" y="900" type="line"/>
      <point x="600" y="812" type="line"/>
      <point x="600" y="811" type="line"/>
    </contour>
  </outline>
</glyph>
<glyph name="Ocircumflextilde.color4" format="2">
  <advance width="600"/>
  <unicode hex="1ED6"/>
  <outline>
    <contour>
      <point x="266" y="868" type="line"/>
      <point x="266" y="934" type="line"/>
      <point x="386" y="945" type="line"/>
      <point x="386" y="868" type="line"/>
    </contour>
  </outline>
</glyph>
<glyph name="Ocircumflextilde.color8" format="2">
  <advance width="600"/>
  <unicode hex="1ED6"/>
  <outline>
    <contour>
      <point x="220" y="755" type="line"/>
      <point x="220" y="756" type="line"/>
      <point x="384" y="853" type="line"/>
      <point x="548" y="853" type="line"/>
      <point x="384" y="755" type="line"/>
    </contour>
  </outline>
</glyph>
<glyph name="Ocircumflextilde" format="2">
  <advance width="907"/>
  <unicode hex="1ED6"/>
  <anchor x="452" y="0" name="bottom"/>
  <anchor x="680" y="730" name="horn"/>
  <anchor x="476" y="730" name="top"/>
  <outline>
    <contour>
      <point x="25" y="523" type="line"/>
      <point x="278" y="730" type="line"/>
      <point x="279" y="730" type="line"/>
      <point x="279" y="244" type="line"/>
      <point x="25" y="244" type="line"/>
    </contour>
    <contour>
      <point x="680" y="730" type="line"/>
      <point x="882" y="487" type="line"/>
      <point x="882" y="486" type="line"/>
      <point x="279" y="486" type="line"/>
      <point x="279" y="730" type="line"/>
    </contour>
    <contour>
      <point x="882" y="197" type="line"/>
      <point x="629" y="0" type="line"/>
      <point x="628" y="0" type="line"/>
      <point x="628" y="486" type="line"/>
      <point x="882" y="486" type="line"/>
    </contour>
    <contour>
      <point x="227" y="0" type="line"/>
      <point x="25" y="243" type="line"/>
      <point x="25" y="244" type="line"/>
      <point x="628" y="244" type="line"/>
      <point x="628" y="0" type="line"/>
    </contour>
    <contour>
      <point x="266" y="868" type="line"/>
      <point x="266" y="934" type="line"/>
      <point x="386" y="945" type="line"/>
      <point x="386" y="868" type="line"/>
    </contour>
    <contour>
      <point x="695" y="980" type="line"/>
      <point x="695" y="906" type="line"/>
      <point x="575" y="887" type="line"/>
      <point x="575" y="980" type="line"/>
    </contour>
    <contour>
      <point x="266" y="935" type="line"/>
      <point x="376" y="984" type="line"/>
      <point x="377" y="984" type="line"/>
      <point x="695" y="927" type="line"/>
      <point x="695" y="906" type="line"/>
      <point x="603" y="861" type="line"/>
      <point x="602" y="861" type="line"/>
      <point x="266" y="924" type="line"/>
    </contour>
    <contour>
      <point x="712" y="755" type="line"/>
      <point x="538" y="755" type="line"/>
      <point x="434" y="808" type="line"/>
      <point x="548" y="853" type="line"/>
      <point x="712" y="756" type="line"/>
    </contour>
    <contour>
      <point x="220" y="755" type="line"/>
      <point x="220" y="756" type="line"/>
      <point x="384" y="853" type="line"/>
      <point x="548" y="853" type="line"/>
      <point x="384" y="755" type="line"/>
    </contour>
  </outline>
</glyph>
<glyph name="ocircumflexdotbelow" format="2">
  <advance width="837"/>
  <unicode hex="1ED9"/>
  <anchor x="422" y="0" name="bottom"/>
  <anchor x="665" y="530" name="horn"/>
  <anchor x="444" y="750" name="top"/>
  <outline>
    <contour>
      <point x="25" y="423" type="line"/>
      <point x="238" y="530" type="line"/>
      <point x="239" y="530" type="line"/>
      <point x="239" y="204" type="line"/>
      <point x="25" y="204" type="line"/>
    </contour>
    <contour>
      <point x="705" y="530" type="line"/>
      <point x="812" y="327" type="line"/>
      <point x="812" y="326" type="line"/>
      <point x="239" y="326" type="line"/>
      <point x="239" y="530" type="line"/>
    </contour>
    <contour>
      <point x="812" y="107" type="line"/>
      <point x="599" y="0" type="line"/>
      <point x="598" y="0" type="line"/>
      <point x="598" y="326" type="line"/>
      <point x="812" y="326" type="line"/>
    </contour>
    <contour>
      <point x="132" y="0" type="line"/>
      <point x="25" y="203" type="line"/>
      <point x="25" y="204" type="line"/>
      <point x="598" y="204" type="line"/>
      <point x="598" y="0" type="line"/>
    </contour>
    <contour>
      <point x="527" y="-200" type="line"/>
      <point x="323" y="-200" type="line"/>
      <point x="323" y="-38" type="line"/>
      <point x="527" y="-38" type="line"/>
    </contour>
    <contour>
      <point x="642" y="592" type="line"/>
      <point x="485" y="592" type="line"/>
      <point x="381" y="739" type="line"/>
      <point x="463" y="770" type="line"/>
      <point x="504" y="770" type="line"/>
    </contour>
    <contour>
      <point x="216" y="592" type="line"/>
      <point x="360" y="770" type="line"/>
      <point x="504" y="770" type="line"/>
      <point x="370" y="592" type="line"/>
    </contour>
  </outline>
</glyph>
<glyph name="ohornhookabove.color6" format="2">
  <advance width="600"/>
  <unicode hex="1EDF"/>
  <outline>
    <contour>
      <point x="630" y="736" type="line"/>
      <point x="302" y="736" type="line"/>
      <point x="302" y="850" type="line"/>
      <point x="543" y="850" type="line"/>
      <point x="630" y="737" type="line"/>
    </contour>
  </outline>
</glyph>
<glyph name="ohornhookabove" format="2">
  <advance width="880"/>
  <unicode hex="1EDF"/>
  <anchor x="422" y="0" name="bottom"/>
  <anchor x="665" y="530" name="horn"/>
  <anchor x="442" y="530" name="top"/>
  <outline>
    <contour>
      <point x="25" y="423" type="line"/>
      <point x="238" y="530" type="line"/>
      <point x="239" y="530" type="line"/>
      <point x="239" y="204" type="line"/>
      <point x="25" y="204" type="line"/>
    </contour>
    <contour>
      <point x="705" y="530" type="line"/>
      <point x="812" y="327" type="line"/>
      <point x="812" y="326" type="line"/>
      <point x="239" y="326" type="line"/>
      <point x="239" y="530" type="line"/>
    </contour>
    <contour>
      <point x="812" y="107" type="line"/>
      <point x="599" y="0" type="line"/>
      <point x="598" y="0" type="line"/>
      <point x="598" y="326" type="line"/>
      <point x="812" y="326" type="line"/>
    </contour>
    <contour>
      <point x="132" y="0" type="line"/>
      <point x="25" y="203" type="line"/>
      <point x="25" y="204" type="line"/>
      <point x="598" y="204" type="line"/>
      <point x="598" y="0" type="line"/>
    </contour>
    <contour>
      <point x="451" y="530" type="line"/>
      <point x="706" y="530" type="line"/>
      <point x="706" y="376" type="line"/>
      <point x="665" y="376" type="line"/>
    </contour>
    <contour>
      <point x="880" y="483" type="line"/>
      <point x="707" y="376" type="line"/>
      <point x="706" y="376" type="line"/>
      <point x="706" y="654" type="line"/>
      <point x="880" y="654" type="line"/>
    </contour>
    <contour>
      <point x="630" y="736" type="line"/>
      <point x="302" y="736" type="line"/>
      <point x="302" y="850" type="line"/>
      <point x="543" y="850" type="line"/>
      <point x="630" y="737" type="line"/>
    </contour>
    <contour>
      <point x="509" y="586" type="line"/>
      <point x="392" y="586" type="line"/>
      <point x="391" y="586" type="line"/>
      <point x="543" y="850" type="line"/>
      <point x="630" y="737" type="line"/>
      <point x="630" y="736" type="line"/>
    </contour>
  </outline>
</glyph>
<glyph name="Ohorntilde" format="2">
  <advance width="907"/>
  <unicode hex="1EE0"/>
  <anchor x="452" y="0" name="bottom"/>
  <anchor x="680" y="730" name="horn"/>
  <anchor x="476" y="730" name="top"/>
  <outline>
    <contour>
      <point x="25" y="523" type="line"/>
      <point x="278" y="730" type="line"/>
      <point x="279" y="730" type="line"/>
      <point x="279" y="244" type="line"/>
      <point x="25" y="244" type="line"/>
    </contour>
    <contour>
      <point x="680" y="730" type="line"/>
      <point x="882" y="487" type="line"/>
      <point x="882" y="486" type="line"/>
      <point x="279" y="486" type="line"/>
      <point x="279" y="730" type="line"/>
    </contour>
    <contour>
      <point x="882" y="197" type="line"/>
      <point x="629" y="0" type="line"/>
      <point x="628" y="0" type="line"/>
      <point x="628" y="486" type="line"/>
      <point x="882" y="486" type="line"/>
    </contour>
    <contour>
      <point x="227" y="0" type="line"/>
      <point x="25" y="243" type="line"/>
      <point x="25" y="244" type="line"/>
      <point x="628" y="244" type="line"/>
      <point x="628" y="0" type="line"/>
    </contour>
    <contour>
      <point x="497" y="730" type="line"/>
      <point x="751" y="730" type="line"/>
      <point x="751" y="576" type="line"/>
      <point x="680" y="576" type="line"/>
      <point x="497" y="729" type="line"/>
    </contour>
    <contour>
      <point x="925" y="683" type="line"/>
      <point x="752" y="576" type="line"/>
      <point x="751" y="576" type="line"/>
      <point x="751" y="854" type="line"/>
      <point x="925" y="854" type="line"/>
    </contour>
    <contour>
      <point x="238" y="772" type="line"/>
      <point x="238" y="853" type="line"/>
      <point x="378" y="864" type="line"/>
      <point x="378" y="772" type="line"/>
    </contour>
    <contour>
      <point x="706" y="915" type="line"/>
      <point x="706" y="827" type="line"/>
      <point x="567" y="806" type="line"/>
      <point x="567" y="915" type="line"/>
    </contour>
    <contour>
      <point x="238" y="853" type="line"/>
      <point x="238" y="854" type="line"/>
      <point x="376" y="923" type="line"/>
      <point x="387" y="923" type="line"/>
      <point x="706" y="827" type="line"/>
      <point x="706" y="826" type="line"/>
      <point x="568" y="756" type="line"/>
      <point x="557" y="756" type="line"/>
    </contour>
  </outline>
</glyph>
<glyph name="ohorntilde" format="2">
  <advance width="880"/>
  <unicode hex="1EE1"/>
  <anchor x="422" y="0" name="bottom"/>
  <anchor x="665" y="530" name="horn"/>
  <anchor x="442" y="530" name="top"/>
  <outline>
    <contour>
      <point x="25" y="423" type="line"/>
      <point x="238" y="530" type="line"/>
      <point x="239" y="530" type="line"/>
      <point x="239" y="204" type="line"/>
      <point x="25" y="204" type="line"/>
    </contour>
    <contour>
      <point x="705" y="530" type="line"/>
      <point x="812" y="327" type="line"/>
      <point x="812" y="326" type="line"/>
      <point x="239" y="326" type="line"/>
      <point x="239" y="530" type="line"/>
    </contour>
    <contour>
      <point x="812" y="107" type="line"/>
      <point x="599" y="0" type="line"/>
      <point x="598" y="0" type="line"/>
      <point x="598" y="326" type="line"/>
      <point x="812" y="326" type="line"/>
    </contour>
    <contour>
      <point x="132" y="0" type="line"/>
      <point x="25" y="203" type="line"/>
      <point x="25" y="204" type="line"/>
      <point x="598" y="204" type="line"/>
      <point x="598" y="0" type="line"/>
    </contour>
    <contour>
      <point x="451" y="530" type="line"/>
      <point x="706" y="530" type="line"/>
      <point x="706" y="376" type="line"/>
      <point x="665" y="376" type="line"/>
    </contour>
    <contour>
      <point x="880" y="483" type="line"/>
      <point x="707" y="376" type="line"/>
      <point x="706" y="376" type="line"/>
      <point x="706" y="654" type="line"/>
      <point x="880" y="654" type="line"/>
    </contour>
    <contour>
      <point x="229" y="601" type="line"/>
      <point x="229" y="722" type="line"/>
      <point x="349" y="703" type="line"/>
      <point x="349" y="601" type="line"/>
    </contour>
    <contour>
      <point x="627" y="749" type="line"/>
      <point x="627" y="630" type="line"/>
      <point x="508" y="640" type="line"/>
      <point x="508" y="749" type="line"/>
    </contour>
    <contour>
      <point x="229" y="722" type="line"/>
      <point x="229" y="723" type="line"/>
      <point x="358" y="762" type="line"/>
      <point x="359" y="762" type="line"/>
      <point x="627" y="630" type="line"/>
      <point x="627" y="629" type="line"/>
      <point x="499" y="590" type="line"/>
      <point x="498" y="590" type="line"/>
    </contour>
  </outline>
</glyph>
<glyph name="uhookabove.color4" format="2">
  <advance width="600"/>
  <unicode hex="1EE7"/>
  <outline>
    <contour>
      <point x="489" y="586" type="line"/>
      <point x="372" y="586" type="line"/>
      <point x="371" y="586" type="line"/>
      <point x="523" y="850" type="line"/>
      <point x="610" y="737" type="line"/>
      <point x="610" y="736" type="line"/>
    </contour>
  </outline>
</glyph>
<glyph name="uhornacute.color4" format="2">
  <advance width="600"/>
  <unicode hex="1EE9"/>
  <outline>
    <contour>
      <point x="987" y="483" type="line"/>
      <point x="814" y="376" type="line"/>
      <point x="813" y="376" type="line"/>
      <point x="813" y="654" type="line"/>
      <point x="987" y="654" type="line"/>
    </contour>
  </outline>
</glyph>
<glyph name="Uhorngrave.color5" format="2">
  <advance width="600"/>
  <unicode hex="1EEA"/>
  <outline>
    <contour>
      <point x="555" y="760" type="line"/>
      <point x="429" y="760" type="line"/>
      <point x="314" y="899" type="line"/>
      <point x="314" y="900" type="line"/>
      <point x="520" y="900" type="line"/>
    </contour>
  </outline>
</glyph>
<glyph name="uhornhookabove" format="2">
  <advance width="987"/>
  <unicode hex="1EED"/>
  <anchor x="422" y="0" name="bottom"/>
  <anchor x="772" y="530" name="horn"/>
  <anchor x="422" y="530" name="top"/>
  <outline>
    <contour>
      <point x="772" y="0" type="line"/>
      <point x="559" y="0" type="line"/>
      <point x="558" y="0" type="line"/>
      <point x="558" y="530" type="line"/>
      <point x="772" y="530" type="line"/>
    </contour>
    <contour>
      <point x="142" y="0" type="line"/>
      <point x="35" y="203" type="line"/>
      <point x="35" y="204" type="line"/>
      <point x="558" y="204" type="line"/>
      <point x="558" y="0" type="line"/>
    </contour>
    <contour>
      <point x="35" y="489" type="line"/>
      <point x="248" y="536" type="line"/>
      <point x="249" y="536" type="line"/>
      <point x="249" y="204" type="line"/>
      <point x="35" y="204" type="line"/>
    </contour>
    <contour>
      <point x="558" y="530" type="line"/>
      <point x="813" y="530" type="line"/>
      <point x="813" y="376" type="line"/>
      <point x="772" y="376" type="line"/>
    </contour>
    <contour>
      <point x="987" y="483" type="line"/>
      <point x="814" y="376" type="line"/>
      <point x="813" y="376" type="line"/>
      <point x="813" y="654" type="line"/>
      <point x="987" y="654" type="line"/>
    </contour>
    <contour>
      <point x="610" y="736" type="line"/>
      <point x="282" y="736" type="line"/>
      <point x="282" y="850" type="line"/>
      <point x="523" y="850" type="line"/>
      <point x="610" y="737" type="line"/>
    </contour>
    <contour>
      <point x="489" y="586" type="line"/>
      <point x="372" y="586" type="line"/>
      <point x="371" y="586" type="line"/>
      <point x="523" y="850" type="line"/>
      <point x="610" y="737" type="line"/>
      <point x="610" y="736" type="line"/>
    </contour>
  </outline>
</glyph>
<glyph name="uhorntilde" format="2">
  <advance width="987"/>
  <unicode hex="1EEF"/>
  <anchor x="422" y="0" name="bottom"/>
  <anchor x="772" y="530" name="horn"/>
  <anchor x="422" y="530" name="top"/>
  <outline>
    <contour>
      <point x="772" y="0" type="line"/>
      <point x="559" y="0" type="line"/>
      <point x="558" y="0" type="line"/>
      <point x="558" y="530" type="line"/>
      <point x="772" y="530" type="line"/>
    </contour>
    <contour>
      <point x="142" y="0" type="line"/>
      <point x="35" y="203" type="line"/>
      <point x="35" y="204" type="line"/>
      <point x="558" y="204" type="line"/>
      <point x="558" y="0" type="line"/>
    </contour>
    <contour>
      <point x="35" y="489" type="line"/>
      <point x="248" y="536" type="line"/>
      <point x="249" y="536" type="line"/>
      <point x="249" y="204" type="line"/>
      <point x="35" y="204" type="line"/>
    </contour>
    <contour>
      <point x="558" y="530" type="line"/>
      <point x="813" y="530" type="line"/>
      <point x="813" y="376" type="line"/>
      <point x="772" y="376" type="line"/>
    </contour>
    <contour>
      <point x="987" y="483" type="line"/>
      <point x="814" y="376" type="line"/>
      <point x="813" y="376" type="line"/>
      <point x="813" y="654" type="line"/>
      <point x="987" y="654" type="line"/>
    </contour>
    <contour>
      <point x="209" y="601" type="line"/>
      <point x="209" y="722" type="line"/>
      <point x="329" y="703" type="line"/>
      <point x="329" y="601" type="line"/>
    </contour>
    <contour>
      <point x="607" y="749" type="line"/>
      <point x="607" y="630" type="line"/>
      <point x="488" y="640" type="line"/>
      <point x="488" y="749" type="line"/>
    </contour>
    <contour>
      <point x="209" y="722" type="line"/>
      <point x="209" y="723" type="line"/>
      <point x="338" y="762" type="line"/>
      <point x="339" y="762" type="line"/>
      <point x="607" y="630" type="line"/>
      <point x="607" y="629" type="line"/>
      <point x="479" y="590" type="line"/>
      <point x="478" y="590" type="line"/>
    </contour>
  </outline>
</glyph>
<glyph name="Ygrave.color3" format="2">
  <advance width="600"/>
  <unicode hex="1EF2"/>
  <outline>
    <contour>
      <point x="522" y="760" type="line"/>
      <point x="396" y="760" type="line"/>
      <point x="281" y="899" type="line"/>
      <point x="281" y="900" type="line"/>
      <point x="487" y="900" type="line"/>
    </contour>
  </outline>
</glyph>
<glyph name="yhookabove.color4" format="2">
  <advance width="600"/>
  <unicode hex="1EF7"/>
  <outline>
    <contour>
      <point x="610" y="736" type="line"/>
      <point x="282" y="736" type="line"/>
      <point x="282" y="850" type="line"/>
      <point x="523" y="850" type="line"/>
      <point x="610" y="737" type="line"/>
    </contour>
  </outline>
</glyph>
<glyph name="Ytilde.color5" format="2">
  <advance width="600"/>
  <unicode hex="1EF8"/>
  <outline>
    <contour>
      <point x="205" y="853" type="line"/>
      <point x="205" y="854" type="line"/>
      <point x="343" y="923" type="line"/>
      <point x="354" y="923" type="line"/>
      <point x="673" y="827" type="line"/>
      <point x="673" y="826" type="line"/>
      <point x="535" y="756" type="line"/>
      <point x="524" y="756" type="line"/>
    </contour>
  </outline>
</glyph>
<glyph name="hyphentwo" format="2">
  <advance width="600"/>
  <unicode hex="2010"/>
  <outline>
    <contour>
      <point x="395" y="263" type="line"/>
      <point x="35" y="263" type="line"/>
      <point x="35" y="467" type="line"/>
      <point x="395" y="467" type="line"/>
      <point x="395" y="264" type="line"/>
    </contour>
  </outline>
</glyph>
<glyph name="quotedblleft.color1" format="2">
  <advance width="600"/>
  <unicode hex="201C"/>
  <outline>
    <contour>
      <point x="376" y="800" type="line"/>
      <point x="503" y="800" type="line"/>
      <point x="504" y="800" type="line"/>
      <point x="464" y="600" type="line"/>
      <point x="290" y="600" type="line"/>
    </contour>
  </outline>
</glyph>
<glyph name="quotedblleft" format="2">
  <advance width="567"/>
  <unicode hex="201C"/>
  <outline>
    <contour>
      <point x="290" y="600" type="line"/>
      <point x="532" y="600" type="line"/>
      <point x="532" y="396" type="line"/>
      <point x="397" y="396" type="line"/>
    </contour>
    <contour>
      <point x="376" y="800" type="line"/>
      <point x="503" y="800" type="line"/>
      <point x="504" y="800" type="line"/>
      <point x="464" y="600" type="line"/>
      <point x="290" y="600" type="line"/>
    </contour>
    <contour>
      <point x="35" y="600" type="line"/>
      <point x="277" y="600" type="line"/>
      <point x="277" y="396" type="line"/>
      <point x="142" y="396" type="line"/>
    </contour>
    <contour>
      <point x="121" y="800" type="line"/>
      <point x="248" y="800" type="line"/>
      <point x="249" y="800" type="line"/>
      <point x="209" y="600" type="line"/>
      <point x="35" y="600" type="line"/>
    </contour>
  </outline>
</glyph>
<glyph name="dagger.color1" format="2">
  <advance width="600"/>
  <unicode hex="2020"/>
  <outline>
    <contour>
      <point x="363" y="570" type="line"/>
      <point x="476" y="570" type="line"/>
      <point x="476" y="376" type="line"/>
      <point x="168" y="376" type="line"/>
    </contour>
  </outline>
</glyph>
<glyph name="fraction" format="2">
  <advance width="877"/>
  <unicode hex="2044"/>
  <outline>
    <contour>
      <point x="852" y="730" type="line"/>
      <point x="852" y="729" type="line"/>
      <point x="258" y="0" type="line"/>
      <point x="25" y="0" type="line"/>
      <point x="25" y="1" type="line"/>
      <point x="619" y="730" type="line"/>
    </contour>
  </outline>
</glyph>
<glyph name="foursuperior" format="2">
  <advance width="490"/>
  <unicode hex="2074"/>
  <outline>
    <contour>
      <point x="291" y="533" type="line"/>
      <point x="110" y="533" type="line"/>
      <point x="121" y="670" type="line"/>
      <point x="291" y="670" type="line"/>
    </contour>
    <contour>
      <point x="187" y="794" type="line"/>
      <point x="366" y="794" type="line"/>
      <point x="366" y="793" type="line"/>
      <point x="110" y="533" type="line"/>
      <point x="5" y="618" type="line"/>
    </contour>
    <contour>
      <point x="445" y="474" type="line"/>
      <point x="291" y="474" type="line"/>
      <point x="291" y="670" type="line"/>
      <point x="292" y="670" type="line"/>
      <point x="445" y="589" type="line"/>
    </contour>
  </outline>
</glyph>
<glyph name="franc.color2" format="2">
  <advance width="600"/>
  <unicode hex="20A3"/>
  <outline>
    <contour>
      <point x="642" y="486" type="line"/>
      <point x="301" y="486" type="line"/>
      <point x="301" y="730" type="line"/>
      <point x="844" y="730" type="line"/>
      <point x="844" y="729" type="line"/>
    </contour>
  </outline>
</glyph>
<glyph name="lira.color0" format="2">
  <advance width="600"/>
  <unicode hex="20A4"/>
  <outline>
    <contour>
      <point x="869" y="423" type="line"/>
      <point x="892" y="400" type="line"/>
      <point x="892" y="399" type="line"/>
      <point x="93" y="398" type="line"/>
      <point x="93" y="399" type="line"/>
      <point x="70" y="422" type="line"/>
    </contour>
  </outline>
</glyph>
<glyph name="peseta.color1" format="2">
  <advance width="600"/>
  <unicode hex="20A7"/>
  <outline>
    <contour>
      <point x="932" y="370" type="line"/>
      <point x="679" y="173" type="line"/>
      <point x="678" y="173" type="line"/>
      <point x="678" y="486" type="line"/>
      <point x="932" y="486" type="line"/>
    </contour>
  </outline>
</glyph>
<glyph name="peseta.color4" format="2">
  <advance width="600"/>
  <unicode hex="20A7"/>
  <outline>
    <contour>
      <point x="75" y="730" type="line"/>
      <point x="328" y="730" type="line"/>
      <point x="329" y="730" type="line"/>
      <point x="329" y="0" type="line"/>
      <point x="75" y="0" type="line"/>
    </contour>
  </outline>
</glyph>
<glyph name="peseta" format="2">
  <advance width="1012"/>
  <unicode hex="20A7"/>
  <outline>
    <contour>
      <point x="730" y="730" type="line"/>
      <point x="932" y="487" type="line"/>
      <point x="932" y="486" type="line"/>
      <point x="329" y="486" type="line"/>
      <point x="329" y="730" type="line"/>
    </contour>
    <contour>
      <point x="932" y="370" type="line"/>
      <point x="679" y="173" type="line"/>
      <point x="678" y="173" type="line"/>
      <point x="678" y="486" type="line"/>
      <point x="932" y="486" type="line"/>
    </contour>
    <contour>
      <point x="329" y="173" type="line"/>
      <point x="329" y="417" type="line"/>
      <point x="678" y="417" type="line"/>
      <point x="678" y="416" type="line"/>
      <point x="678" y="173" type="line"/>
    </contour>
    <contour>
      <point x="1009" y="466" type="line"/>
      <point x="1032" y="443" type="line"/>
      <point x="1032" y="442" type="line"/>
      <point x="3" y="441" type="line"/>
      <point x="3" y="442" type="line"/>
      <point x="-20" y="465" type="line"/>
    </contour>
    <contour>
      <point x="75" y="730" type="line"/>
      <point x="328" y="730" type="line"/>
      <point x="329" y="730" type="line"/>
      <point x="329" y="0" type="line"/>
      <point x="75" y="0" type="line"/>
    </contour>
  </outline>
</glyph>
<glyph name="dong.color1" format="2">
  <advance width="600"/>
  <unicode hex="20AB"/>
  <outline>
    <contour>
      <point x="35" y="471" type="line"/>
      <point x="248" y="578" type="line"/>
      <point x="249" y="578" type="line"/>
      <point x="249" y="354" type="line"/>
      <point x="35" y="354" type="line"/>
    </contour>
  </outline>
</glyph>
<glyph name="kip.color0" format="2">
  <advance width="600"/>
  <unicode hex="20AD"/>
  <outline>
    <contour>
      <point x="1101" y="467" type="line"/>
      <point x="1305" y="294" type="line"/>
      <point x="1305" y="293" type="line"/>
      <point x="184" y="293" type="line"/>
      <point x="-20" y="466" type="line"/>
      <point x="-20" y="467" type="line"/>
    </contour>
  </outline>
</glyph>
<glyph name="kip" format="2">
  <advance width="1285"/>
  <unicode hex="20AD"/>
  <anchor x="680" y="0" name="bottom"/>
  <outline>
    <contour>
      <point x="1101" y="467" type="line"/>
      <point x="1305" y="294" type="line"/>
      <point x="1305" y="293" type="line"/>
      <point x="184" y="293" type="line"/>
      <point x="-20" y="466" type="line"/>
      <point x="-20" y="467" type="line"/>
    </contour>
    <contour>
      <point x="280" y="730" type="line"/>
      <point x="534" y="730" type="line"/>
      <point x="534" y="0" type="line"/>
      <point x="280" y="0" type="line"/>
    </contour>
    <contour>
      <point x="1196" y="0" type="line"/>
      <point x="885" y="0" type="line"/>
      <point x="709" y="240" type="line"/>
      <point x="923" y="363" type="line"/>
    </contour>
    <contour>
      <point x="1087" y="420" type="line"/>
      <point x="834" y="223" type="line"/>
      <point x="833" y="223" type="line"/>
      <point x="833" y="730" type="line"/>
      <point x="1087" y="730" type="line"/>
    </contour>
    <contour>
      <point x="534" y="223" type="line"/>
      <point x="534" y="467" type="line"/>
      <point x="833" y="467" type="line"/>
      <point x="833" y="223" type="line"/>
    </contour>
  </outline>
</glyph>
<glyph name="peso.color2" format="2">
  <advance width="600"/>
  <unicode hex="20B1"/>
  <outline>
    <contour>
      <point x="329" y="133" type="line"/>
      <point x="329" y="377" type="line"/>
      <point x="678" y="377" type="line"/>
      <point x="678" y="376" type="line"/>
      <point x="678" y="133" type="line"/>
    </contour>
  </outline>
</glyph>
<glyph name="guarani" format="2">
  <advance width="1027"/>
  <unicode hex="20B2"/>
  <outline>
    <contour>
      <point x="35" y="523" type="line"/>
      <point x="288" y="730" type="line"/>
      <point x="289" y="730" type="line"/>
      <point x="289" y="244" type="line"/>
      <point x="35" y="244" type="line"/>
    </contour>
    <contour>
      <point x="790" y="730" type="line"/>
      <point x="992" y="487" type="line"/>
      <point x="992" y="486" type="line"/>
      <point x="289" y="486" type="line"/>
      <point x="289" y="730" type="line"/>
    </contour>
    <contour>
      <point x="237" y="0" type="line"/>
      <point x="35" y="243" type="line"/>
      <point x="35" y="244" type="line"/>
      <point x="738" y="244" type="line"/>
      <point x="738" y="0" type="line"/>
    </contour>
    <contour>
      <point x="759" y="785" type="line"/>
      <point x="462" y="-47" type="line"/>
      <point x="229" y="-47" type="line"/>
      <point x="229" y="-46" type="line"/>
      <point x="528" y="786" type="line"/>
      <point x="759" y="786" type="line"/>
    </contour>
    <contour>
      <point x="415" y="262" type="line"/>
      <point x="415" y="465" type="line"/>
      <point x="415" y="466" type="line"/>
      <point x="738" y="466" type="line"/>
      <point x="738" y="263" type="line"/>
      <point x="738" y="262" type="line"/>
    </contour>
    <contour>
      <point x="992" y="197" type="line"/>
      <point x="739" y="0" type="line"/>
      <point x="738" y="0" type="line"/>
      <point x="738" y="466" type="line"/>
      <point x="739" y="466" type="line"/>
      <point x="992" y="254" type="line"/>
    </contour>
  </outline>
</glyph>
<glyph name="liraTurkish.color0" format="2">
  <advance width="600"/>
  <unicode hex="20BA"/>
  <outline>
    <contour>
      <point x="713" y="496" type="line"/>
      <point x="713" y="565" type="line"/>
      <point x="11" y="455" type="line"/>
      <point x="8" y="425" type="line"/>
      <point x="8" y="576" type="line"/>
      <point x="710" y="686" type="line"/>
    </contour>
  </outline>
</glyph>
<glyph name="liraTurkish.color4" format="2">
  <advance width="600"/>
  <unicode hex="20BA"/>
  <outline>
    <contour>
      <point x="145" y="730" type="line"/>
      <point x="399" y="730" type="line"/>
      <point x="399" y="244" type="line"/>
      <point x="398" y="244" type="line"/>
      <point x="145" y="244" type="line"/>
    </contour>
  </outline>
</glyph>
<glyph name="approxequal" format="2">
  <advance width="808"/>
  <unicode hex="2248"/>
  <outline>
    <contour>
      <point x="783" y="351" type="line"/>
      <point x="783" y="124" type="line"/>
      <point x="569" y="123" type="line"/>
      <point x="569" y="351" type="line"/>
    </contour>
    <contour>
      <point x="25" y="332" type="line"/>
      <point x="25" y="333" type="line"/>
      <point x="239" y="376" type="line"/>
      <point x="240" y="376" type="line"/>
      <point x="783" y="124" type="line"/>
      <point x="783" y="122" type="line"/>
      <point x="569" y="81" type="line"/>
      <point x="568" y="81" type="line"/>
    </contour>
    <contour>
      <point x="25" y="103" type="line"/>
      <point x="25" y="333" type="line"/>
      <point x="239" y="376" type="line"/>
      <point x="239" y="103" type="line"/>
    </contour>
    <contour>
      <point x="783" y="651" type="line"/>
      <point x="783" y="423" type="line"/>
      <point x="569" y="423" type="line"/>
      <point x="569" y="651" type="line"/>
    </contour>
    <contour>
      <point x="25" y="632" type="line"/>
      <point x="25" y="633" type="line"/>
      <point x="239" y="676" type="line"/>
      <point x="240" y="676" type="line"/>
      <point x="783" y="423" type="line"/>
      <point x="783" y="422" type="line"/>
      <point x="569" y="381" type="line"/>
      <point x="568" y="381" type="line"/>
    </contour>
    <contour>
      <point x="25" y="403" type="line"/>
      <point x="25" y="633" type="line"/>
      <point x="239" y="676" type="line"/>
      <point x="239" y="403" type="line"/>
    </contour>
  </outline>
</glyph>
<glyph name="greaterequal.color2" format="2">
  <advance width="600"/>
  <unicode hex="2265"/>
  <outline>
    <contour>
      <point x="336" y="248" type="line"/>
      <point x="25" y="248" type="line"/>
      <point x="25" y="249" type="line"/>
      <point x="396" y="496" type="line"/>
      <point x="708" y="496" type="line"/>
      <point x="708" y="495" type="line"/>
    </contour>
  </outline>
</glyph>
<glyph name="leftanglebracket-math" format="2">
  <advance width="624"/>
  <unicode hex="27E8"/>
  <outline>
    <contour>
      <point x="336" y="730" type="line"/>
      <point x="589" y="730" type="line"/>
      <point x="589" y="729" type="line"/>
      <point x="289" y="360" type="line"/>
      <point x="35" y="360" type="line"/>
      <point x="35" y="361" type="line"/>
    </contour>
    <contour>
      <point x="336" y="0" type="line"/>
      <point x="35" y="359" type="line"/>
      <point x="35" y="360" type="line"/>
      <point x="289" y="360" type="line"/>
      <point x="589" y="5" type="line"/>
      <point x="589" y="0" type="line"/>
    </contour>
  </outline>
</glyph>
<glyph name="brevecomb.case.color2" format="2">
  <outline>
    <contour>
      <point x="432" y="760" type="line"/>
      <point x="187" y="760" type="line"/>
      <point x="93" y="860" type="line"/>
      <point x="526" y="860" type="line"/>
    </contour>
  </outline>
</glyph>
<glyph name="brevecomb_acutecomb.case.color2" format="2">
  <outline>
    <contour>
      <point x="432" y="760" type="line"/>
      <point x="187" y="760" type="line"/>
      <point x="96" y="852" type="line"/>
      <point x="523" y="852" type="line"/>
    </contour>
  </outline>
</glyph>
<glyph name="brevecomb_acutecomb.case" format="2">
  <anchor x="309" y="730" name="_top"/>
  <outline>
    <contour>
      <point x="242" y="852" type="line"/>
      <point x="96" y="852" type="line"/>
      <point x="59" y="890" type="line"/>
      <point x="59" y="892" type="line"/>
      <point x="195" y="892" type="line"/>
    </contour>
    <contour>
      <point x="377" y="852" type="line"/>
      <point x="424" y="892" type="line"/>
      <point x="560" y="892" type="line"/>
      <point x="560" y="891" type="line"/>
      <point x="523" y="852" type="line"/>
    </contour>
    <contour>
      <point x="432" y="760" type="line"/>
      <point x="187" y="760" type="line"/>
      <point x="96" y="852" type="line"/>
      <point x="523" y="852" type="line"/>
    </contour>
    <contour>
      <point x="245" y="870" type="line"/>
      <point x="278" y="980" type="line"/>
      <point x="444" y="980" type="line"/>
      <point x="444" y="979" type="line"/>
      <point x="341" y="870" type="line"/>
    </contour>
  </outline>
</glyph>
<glyph name="brevecomb_acutecomb.color3" format="2">
  <outline>
    <contour>
      <point x="352" y="720" type="line"/>
      <point x="256" y="720" type="line"/>
      <point x="299" y="899" type="line"/>
      <point x="299" y="900" type="line"/>
      <point x="467" y="900" type="line"/>
    </contour>
  </outline>
</glyph>
<glyph name="brevecomb_gravecomb.case.color1" format="2">
  <outline>
    <contour>
      <point x="377" y="852" type="line"/>
      <point x="424" y="892" type="line"/>
      <point x="560" y="892" type="line"/>
      <point x="560" y="891" type="line"/>
      <point x="523" y="852" type="line"/>
    </contour>
  </outline>
</glyph>
<glyph name="brevecomb_hookabovecomb.case.color4" format="2">
  <outline>
    <contour>
      <point x="360" y="874" type="line"/>
      <point x="263" y="874" type="line"/>
      <point x="262" y="874" type="line"/>
      <point x="390" y="1010" type="line"/>
      <point x="457" y="929" type="line"/>
      <point x="457" y="928" type="line"/>
    </contour>
  </outline>
</glyph>
<glyph name="brevecomb_hookabovecomb" format="2">
  <anchor x="309" y="530" name="_top"/>
  <outline>
    <contour>
      <point x="232" y="675" type="line"/>
      <point x="106" y="675" type="line"/>
      <point x="59" y="744" type="line"/>
      <point x="59" y="746" type="line"/>
      <point x="185" y="746" type="line"/>
    </contour>
    <contour>
      <point x="387" y="675" type="line"/>
      <point x="434" y="746" type="line"/>
      <point x="560" y="746" type="line"/>
      <point x="560" y="745" type="line"/>
      <point x="513" y="675" type="line"/>
    </contour>
    <contour>
      <point x="452" y="578" type="line"/>
      <point x="167" y="578" type="line"/>
      <point x="106" y="675" type="line"/>
      <point x="513" y="675" type="line"/>
    </contour>
    <contour>
      <point x="437" y="803" type="line"/>
      <point x="179" y="803" type="line"/>
      <point x="179" y="900" type="line"/>
      <point x="350" y="900" type="line"/>
      <point x="437" y="804" type="line"/>
    </contour>
    <contour>
      <point x="356" y="716" type="line"/>
      <point x="249" y="716" type="line"/>
      <point x="248" y="716" type="line"/>
      <point x="350" y="900" type="line"/>
      <point x="437" y="804" type="line"/>
      <point x="437" y="803" type="line"/>
    </contour>
  </outline>
</glyph>
<glyph name="brevecomb_tildecomb.case.color0" format="2">
  <outline>
    <contour>
      <point x="182" y="852" type="line"/>
      <point x="36" y="852" type="line"/>
      <point x="-6" y="898" type="line"/>
      <point x="-6" y="900" type="line"/>
      <point x="130" y="900" type="line"/>
    </contour>
  </outline>
</glyph>
<glyph name="brevecomb_tildecomb.case.color5" format="2">
  <outline>
    <contour>
      <point x="193" y="944" type="line"/>
      <point x="193" y="945" type="line"/>
      <point x="308" y="984" type="line"/>
      <point x="349" y="984" type="line"/>
      <point x="628" y="927" type="line"/>
      <point x="628" y="916" type="line"/>
      <point x="546" y="879" type="line"/>
      <point x="505" y="879" type="line"/>
    </contour>
  </outline>
</glyph>
<glyph name="brevecomb_tildecomb.case" format="2">
  <anchor x="309" y="730" name="_top"/>
  <outline>
    <contour>
      <point x="182" y="852" type="line"/>
      <point x="36" y="852" type="line"/>
      <point x="-6" y="898" type="line"/>
      <point x="-6" y="900" type="line"/>
      <point x="130" y="900" type="line"/>
    </contour>
    <contour>
      <point x="317" y="852" type="line"/>
      <point x="368" y="895" type="line"/>
      <point x="482" y="872" type="line"/>
      <point x="482" y="871" type="line"/>
      <point x="463" y="852" type="line"/>
    </contour>
    <contour>
      <point x="372" y="760" type="line"/>
      <point x="127" y="760" type="line"/>
      <point x="36" y="852" type="line"/>
      <point x="463" y="852" type="line"/>
    </contour>
    <contour>
      <point x="193" y="868" type="line"/>
      <point x="193" y="944" type="line"/>
      <point x="318" y="955" type="line"/>
      <point x="318" y="868" type="line"/>
    </contour>
    <contour>
      <point x="628" y="980" type="line"/>
      <point x="628" y="916" type="line"/>
      <point x="493" y="907" type="line"/>
      <point x="493" y="980" type="line"/>
    </contour>
    <contour>
      <point x="193" y="944" type="line"/>
      <point x="193" y="945" type="line"/>
      <point x="308" y="984" type="line"/>
      <point x="349" y="984" type="line"/>
      <point x="628" y="927" type="line"/>
      <point x="628" y="916" type="line"/>
      <point x="546" y="879" type="line"/>
      <point x="505" y="879" type="line"/>
    </contour>
  </outline>
</glyph>
<glyph name="brevecomb_tildecomb.color1" format="2">
  <outline>
    <contour>
      <point x="387" y="685" type="line"/>
      <point x="422" y="741" type="line"/>
      <point x="548" y="741" type="line"/>
      <point x="548" y="740" type="line"/>
      <point x="513" y="685" type="line"/>
    </contour>
  </outline>
</glyph>
<glyph name="brevecomb_tildecomb.color3" format="2">
  <outline>
    <contour>
      <point x="239" y="731" type="line"/>
      <point x="239" y="852" type="line"/>
      <point x="349" y="833" type="line"/>
      <point x="349" y="731" type="line"/>
    </contour>
  </outline>
</glyph>
<glyph name="brevecomb_tildecomb.color5" format="2">
  <outline>
    <contour>
      <point x="239" y="851" type="line"/>
      <point x="239" y="852" type="line"/>
      <point x="339" y="902" type="line"/>
      <point x="340" y="902" type="line"/>
      <point x="597" y="821" type="line"/>
      <point x="597" y="800" type="line"/>
      <point x="487" y="760" type="line"/>
      <point x="476" y="760" type="line"/>
    </contour>
  </outline>
</glyph>
<glyph name="brevecomb_tildecomb" format="2">
  <anchor x="309" y="530" name="_top"/>
  <anchor x="324" y="860" name="top"/>
  <outline>
    <contour>
      <point x="232" y="685" type="line"/>
      <point x="106" y="685" type="line"/>
      <point x="59" y="754" type="line"/>
      <point x="59" y="756" type="line"/>
      <point x="185" y="756" type="line"/>
    </contour>
    <contour>
      <point x="387" y="685" type="line"/>
      <point x="422" y="741" type="line"/>
      <point x="548" y="741" type="line"/>
      <point x="548" y="740" type="line"/>
      <point x="513" y="685" type="line"/>
    </contour>
    <contour>
      <point x="452" y="578" type="line"/>
      <point x="167" y="578" type="line"/>
      <point x="106" y="685" type="line"/>
      <point x="513" y="685" type="line"/>
    </contour>
    <contour>
      <point x="239" y="731" type="line"/>
      <point x="239" y="852" type="line"/>
      <point x="349" y="833" type="line"/>
      <point x="349" y="731" type="line"/>
    </contour>
    <contour>
      <point x="597" y="919" type="line"/>
      <point x="597" y="800" type="line"/>
      <point x="477" y="820" type="line"/>
      <point x="477" y="919" type="line"/>
    </contour>
    <contour>
      <point x="239" y="851" type="line"/>
      <point x="239" y="852" type="line"/>
      <point x="339" y="902" type="line"/>
      <point x="340" y="902" type="line"/>
      <point x="597" y="821" type="line"/>
      <point x="597" y="800" type="line"/>
      <point x="487" y="760" type="line"/>
      <point x="476" y="760" type="line"/>
    </contour>
  </outline>
</glyph>
<glyph name="caroncomb.alt.case" format="2">
  <anchor x="109" y="730" name="_top"/>
  <outline>
    <contour>
      <point x="281" y="564" type="line"/>
      <point x="316" y="794" type="line"/>
      <point x="492" y="794" type="line"/>
      <point x="492" y="793" type="line"/>
      <point x="377" y="564" type="line"/>
    </contour>
  </outline>
</glyph>
<glyph name="circumflexcomb_gravecomb.case.color0" format="2">
  <outline>
    <contour>
      <point x="499" y="755" type="line"/>
      <point x="342" y="755" type="line"/>
      <point x="238" y="852" type="line"/>
      <point x="320" y="883" type="line"/>
      <point x="371" y="883" type="line"/>
      <point x="499" y="756" type="line"/>
    </contour>
  </outline>
</glyph>
<glyph name="circumflexcomb_gravecomb.color1" format="2">
  <outline>
    <contour>
      <point x="546" y="578" type="line"/>
      <point x="362" y="578" type="line"/>
      <point x="238" y="675" type="line"/>
      <point x="340" y="706" type="line"/>
      <point x="391" y="706" type="line"/>
      <point x="546" y="579" type="line"/>
    </contour>
  </outline>
</glyph>
<glyph name="circumflexcomb_hookabovecomb.case.color3" format="2">
  <outline>
    <contour>
      <point x="530" y="824" type="line"/>
      <point x="443" y="824" type="line"/>
      <point x="442" y="824" type="line"/>
      <point x="540" y="980" type="line"/>
      <point x="617" y="893" type="line"/>
      <point x="617" y="892" type="line"/>
    </contour>
  </outline>
</glyph>
<glyph name="circumflexcomb_tildecomb.case.color0" format="2">
  <outline>
    <contour>
      <point x="99" y="868" type="line"/>
      <point x="99" y="934" type="line"/>
      <point x="219" y="945" type="line"/>
      <point x="219" y="868" type="line"/>
    </contour>
  </outline>
</glyph>
<glyph name="dblgravecomb.case.color0" format="2">
  <outline>
    <contour>
      <point x="497" y="760" type="line"/>
      <point x="371" y="760" type="line"/>
      <point x="256" y="899" type="line"/>
      <point x="256" y="900" type="line"/>
      <point x="462" y="900" type="line"/>
    </contour>
  </outline>
</glyph>
<glyph name="eight.lf.color4" format="2">
  <advance width="600"/>
  <outline>
    <contour>
      <point x="775" y="193" type="line"/>
      <point x="522" y="0" type="line"/>
      <point x="521" y="0" type="line"/>
      <point x="521" y="466" type="line"/>
      <point x="522" y="466" type="line"/>
      <point x="775" y="269" type="line"/>
    </contour>
    <contour>
      <point x="25" y="193" type="line"/>
      <point x="25" y="269" type="line"/>
      <point x="278" y="466" type="line"/>
      <point x="279" y="466" type="line"/>
      <point x="279" y="0" type="line"/>
      <point x="278" y="0" type="line"/>
    </contour>
  </outline>
</glyph>
<glyph name="f_f.color7" format="2">
  <advance width="600"/>
  <outline>
    <contour>
      <point x="856" y="173" type="line"/>
      <point x="856" y="0" type="line"/>
      <point x="642" y="0" type="line"/>
      <point x="642" y="377" type="line"/>
      <point x="643" y="377" type="line"/>
    </contour>
  </outline>
</glyph>
<glyph name="f_f_l.color8" format="2">
  <advance width="600"/>
  <outline>
    <contour>
      <point x="1249" y="794" type="line"/>
      <point x="1463" y="794" type="line"/>
      <point x="1463" y="0" type="line"/>
      <point x="1462" y="0" type="line"/>
      <point x="1249" y="107" type="line"/>
    </contour>
  </outline>
</glyph>
<glyph name="four.lf.color2" format="2">
  <advance width="600"/>
  <outline>
    <contour>
      <point x="775" y="0" type="line"/>
      <point x="521" y="0" type="line"/>
      <point x="521" y="417" type="line"/>
      <point x="522" y="417" type="line"/>
      <point x="775" y="210" type="line"/>
    </contour>
  </outline>
</glyph>
<glyph name="hookabovecomb.case.color1" format="2">
  <outline>
    <contour>
      <point x="386" y="760" type="line"/>
      <point x="269" y="760" type="line"/>
      <point x="268" y="760" type="line"/>
      <point x="420" y="940" type="line"/>
      <point x="527" y="839" type="line"/>
      <point x="527" y="838" type="line"/>
    </contour>
  </outline>
</glyph>
<glyph name="horncomb.case.color0" format="2">
  <outline>
    <contour>
      <point x="96" y="730" type="line"/>
      <point x="350" y="730" type="line"/>
      <point x="350" y="576" type="line"/>
      <point x="279" y="576" type="line"/>
      <point x="96" y="729" type="line"/>
    </contour>
  </outline>
</glyph>
<glyph name="periodcentered.loclCAT" format="2">
  <advance width="77"/>
  <outline>
    <contour>
      <point x="62" y="326" type="line"/>
      <point x="-170" y="326" type="line"/>
      <point x="-170" y="530" type="line"/>
      <point x="62" y="530" type="line"/>
    </contour>
  </outline>
</glyph>
<glyph name="ringcomb.case.color0" format="2">
  <outline>
    <contour>
      <point x="132" y="886" type="line"/>
      <point x="228" y="948" type="line"/>
      <point x="228" y="948" type="line"/>
      <point x="228" y="812" type="line"/>
      <point x="132" y="812" type="line"/>
    </contour>
  </outline>
</glyph>
<glyph name="ringcomb.case.color3" format="2">
  <outline>
    <contour>
      <point x="192" y="730" type="line"/>
      <point x="132" y="812" type="line"/>
      <point x="132" y="812" type="line"/>
      <point x="362" y="812" type="line"/>
      <point x="362" y="730" type="line"/>
    </contour>
  </outline>
</glyph>
<glyph name="six.lf.color1" format="2">
  <advance width="600"/>
  <outline>
    <contour>
      <point x="553" y="730" type="line"/>
      <point x="755" y="487" type="line"/>
      <point x="755" y="486" type="line"/>
      <point x="289" y="486" type="line"/>
      <point x="289" y="730" type="line"/>
    </contour>
  </outline>
</glyph>
<glyph name="tildecomb.case.color1" format="2">
  <outline>
    <contour>
      <point x="517" y="915" type="line"/>
      <point x="517" y="827" type="line"/>
      <point x="378" y="806" type="line"/>
      <point x="378" y="915" type="line"/>
    </contour>
  </outline>
</glyph>
